<svg xmlns="http://www.w3.org/2000/svg" viewBox="0 0 64 64" shape-rendering="crispEdges">
  <!-- Left tower (tan) -->
  <rect x="6" y="24" width="16" height="34" fill="#c9a47a"/>
  <rect x="9" y="28" width="10" height="2" fill="#f1e3c6"/>
  <rect x="9" y="34" width="10" height="2" fill="#f1e3c6"/>
  <rect x="9" y="40" width="10" height="2" fill="#f1e3c6"/>
  <rect x="9" y="46" width="10" height="2" fill="#f1e3c6"/>
  <rect x="9" y="52" width="10" height="2" fill="#f1e3c6"/>
  <!-- Middle tower (blue, tallest) -->
  <rect x="24" y="8" width="16" height="50" fill="#5a8fae"/>
  <rect x="27" y="12" width="10" height="2" fill="#cfe2ec"/>
  <rect x="27" y="18" width="10" height="2" fill="#cfe2ec"/>
  <rect x="27" y="24" width="10" height="2" fill="#cfe2ec"/>
  <rect x="27" y="30" width="10" height="2" fill="#cfe2ec"/>
  <rect x="27" y="36" width="10" height="2" fill="#cfe2ec"/>
  <rect x="27" y="42" width="10" height="2" fill="#cfe2ec"/>
  <rect x="27" y="48" width="10" height="2" fill="#cfe2ec"/>
  <rect x="27" y="54" width="10" height="2" fill="#cfe2ec"/>
  <!-- Right tower (light tan) -->
  <rect x="42" y="30" width="16" height="28" fill="#e0c69a"/>
  <rect x="45" y="34" width="10" height="2" fill="#f7ecd4"/>
  <rect x="45" y="40" width="10" height="2" fill="#f7ecd4"/>
  <rect x="45" y="46" width="10" height="2" fill="#f7ecd4"/>
  <rect x="45" y="52" width="10" height="2" fill="#f7ecd4"/>
</svg>
