<svg preserveAspectRatio="none" xmlns="http://www.w3.org/2000/svg" viewBox="0 0 320 80" width="320" height="80">
  <!-- Back wall - warm red diner tone -->
  <rect x="0" y="0" width="320" height="76" fill="#c45050"/>

  <!-- Baseboard -->
  <rect x="0" y="72" width="320" height="4" fill="#8a3838"/>

  <!-- Floor - checkered tiles -->
  <rect x="0" y="76" width="320" height="4" fill="#e8e0d0"/>
  <rect x="0" y="76" width="12" height="4" fill="#d0c8b8"/>
  <rect x="24" y="76" width="12" height="4" fill="#d0c8b8"/>
  <rect x="48" y="76" width="12" height="4" fill="#d0c8b8"/>
  <rect x="72" y="76" width="12" height="4" fill="#d0c8b8"/>
  <rect x="96" y="76" width="12" height="4" fill="#d0c8b8"/>
  <rect x="120" y="76" width="12" height="4" fill="#d0c8b8"/>
  <rect x="144" y="76" width="12" height="4" fill="#d0c8b8"/>
  <rect x="168" y="76" width="12" height="4" fill="#d0c8b8"/>
  <rect x="192" y="76" width="12" height="4" fill="#d0c8b8"/>
  <rect x="216" y="76" width="12" height="4" fill="#d0c8b8"/>
  <rect x="240" y="76" width="12" height="4" fill="#d0c8b8"/>
  <rect x="264" y="76" width="12" height="4" fill="#d0c8b8"/>
  <rect x="288" y="76" width="12" height="4" fill="#d0c8b8"/>
  <rect x="312" y="76" width="8" height="4" fill="#d0c8b8"/>

  <!-- Ceiling lights - retro pendant lamps -->
  <rect x="50" y="0" width="2" height="8" fill="#b0b0a0"/>
  <polygon points="44,8 58,8 54,14 48,14" fill="#e8d870"/>
  <rect x="46" y="14" width="10" height="2" fill="#d0c060" rx="1"/>

  <rect x="160" y="0" width="2" height="8" fill="#b0b0a0"/>
  <polygon points="154,8 168,8 164,14 158,14" fill="#e8d870"/>
  <rect x="156" y="14" width="10" height="2" fill="#d0c060" rx="1"/>

  <rect x="270" y="0" width="2" height="8" fill="#b0b0a0"/>
  <polygon points="264,8 278,8 274,14 268,14" fill="#e8d870"/>
  <rect x="266" y="14" width="10" height="2" fill="#d0c060" rx="1"/>

  <!-- Menu board on wall -->
  <rect x="120" y="6" width="70" height="24" fill="#2a2420" rx="2"/>
  <rect x="123" y="9" width="64" height="18" fill="#1a1810" rx="1"/>
  <!-- Menu text lines -->
  <rect x="126" y="12" width="22" height="2" fill="#e8d870" rx="0.5"/>
  <rect x="126" y="16" width="18" height="1.5" fill="#c8b850" rx="0.5"/>
  <rect x="126" y="19" width="20" height="1.5" fill="#c8b850" rx="0.5"/>
  <rect x="126" y="22" width="16" height="1.5" fill="#c8b850" rx="0.5"/>
  <rect x="158" y="12" width="20" height="2" fill="#e8d870" rx="0.5"/>
  <rect x="158" y="16" width="16" height="1.5" fill="#c8b850" rx="0.5"/>
  <rect x="158" y="19" width="18" height="1.5" fill="#c8b850" rx="0.5"/>
  <rect x="158" y="22" width="14" height="1.5" fill="#c8b850" rx="0.5"/>

  <!-- Counter -->
  <rect x="80" y="52" width="150" height="4" fill="#d0d0cc" rx="1"/>
  <rect x="82" y="56" width="146" height="16" fill="#c0c0b8" rx="1"/>
  <!-- Counter front trim -->
  <rect x="80" y="50" width="150" height="2" fill="#a8a8a0" rx="1"/>

  <!-- Cash register -->
  <rect x="200" y="42" width="14" height="10" fill="#606058" rx="1"/>
  <rect x="201" y="43" width="12" height="6" fill="#80c080" rx="1"/>
  <rect x="202" y="50" width="10" height="2" fill="#505048"/>

  <!-- Counter stools -->
  <!-- Stool 1 -->
  <rect x="96" y="70" width="2" height="6" fill="#a0a098"/>
  <circle cx="97" cy="68" r="5" fill="#d04040"/>
  <!-- Stool 2 -->
  <rect x="128" y="70" width="2" height="6" fill="#a0a098"/>
  <circle cx="129" cy="68" r="5" fill="#d04040"/>
  <!-- Stool 3 -->
  <rect x="160" y="70" width="2" height="6" fill="#a0a098"/>
  <circle cx="161" cy="68" r="5" fill="#d04040"/>
  <!-- Stool 4 -->
  <rect x="192" y="70" width="2" height="6" fill="#a0a098"/>
  <circle cx="193" cy="68" r="5" fill="#d04040"/>

  <!-- Booth (left side) -->
  <!-- Back seat -->
  <rect x="4" y="34" width="6" height="38" fill="#b03030" rx="2"/>
  <!-- Seat cushion -->
  <rect x="10" y="56" width="24" height="10" fill="#c04040" rx="2"/>
  <!-- Booth table -->
  <rect x="34" y="48" width="4" height="24" fill="#8a7050"/>
  <rect x="26" y="46" width="18" height="4" fill="#a08060" rx="1"/>
  <!-- Opposite seat -->
  <rect x="44" y="56" width="16" height="10" fill="#c04040" rx="2"/>
  <!-- Opposite back -->
  <rect x="60" y="34" width="6" height="38" fill="#b03030" rx="2"/>

  <!-- Ketchup & mustard on booth table -->
  <rect x="30" y="42" width="3" height="4" fill="#d04040" rx="1"/>
  <rect x="35" y="42" width="3" height="4" fill="#d0c020" rx="1"/>

  <!-- Kitchen area (behind counter, right side) -->
  <!-- Grill/griddle -->
  <rect x="236" y="38" width="28" height="14" fill="#606060" rx="1"/>
  <rect x="238" y="40" width="24" height="8" fill="#505050" rx="1"/>
  <!-- Grill grates -->
  <rect x="239" y="42" width="22" height="1" fill="#686868"/>
  <rect x="239" y="44" width="22" height="1" fill="#686868"/>
  <rect x="239" y="46" width="22" height="1" fill="#686868"/>

  <!-- Fry baskets -->
  <rect x="270" y="40" width="18" height="12" fill="#707068" rx="1"/>
  <rect x="272" y="38" width="5" height="4" fill="#808078" rx="1"/>
  <rect x="280" y="38" width="5" height="4" fill="#808078" rx="1"/>
  <!-- Oil shimmer -->
  <rect x="271" y="44" width="16" height="2" fill="#c0a840" rx="0.5"/>

  <!-- Drink machine -->
  <rect x="294" y="34" width="18" height="18" fill="#707068" rx="1"/>
  <rect x="296" y="36" width="6" height="10" fill="#d04040" rx="1"/>
  <rect x="304" y="36" width="6" height="10" fill="#4080c0" rx="1"/>
  <rect x="298" y="48" width="2" height="4" fill="#a0a098"/>
  <rect x="306" y="48" width="2" height="4" fill="#a0a098"/>

  <!-- Plates/food on counter -->
  <!-- Burger plate -->
  <rect x="92" y="48" width="10" height="3" fill="#e0d8d0" rx="1"/>
  <!-- Burger -->
  <rect x="94" y="44" width="6" height="2" fill="#c89040" rx="1"/>
  <rect x="93" y="46" width="8" height="2" fill="#804020" rx="1"/>
  <rect x="94" y="43" width="6" height="2" fill="#c89040" rx="1"/>

  <!-- Drink cup -->
  <rect x="124" y="44" width="6" height="8" fill="#e0e0d8" rx="1"/>
  <rect x="125" y="44" width="4" height="3" fill="#d04040"/>
  <rect x="126" y="42" width="2" height="2" fill="#d0d0c8"/>

  <!-- Fries -->
  <rect x="150" y="46" width="8" height="6" fill="#d04040" rx="1"/>
  <rect x="151" y="42" width="1.5" height="5" fill="#e8c840" rx="0.5"/>
  <rect x="153" y="43" width="1.5" height="4" fill="#e8c840" rx="0.5"/>
  <rect x="155" y="42" width="1.5" height="5" fill="#e8c840" rx="0.5"/>

  <!-- Napkin dispenser -->
  <rect x="178" y="46" width="8" height="6" fill="#c0c0b8" rx="1"/>
  <rect x="181" y="47" width="2" height="4" fill="#e8e8e0"/>

  <!-- Wall decor - neon "OPEN" style sign -->
  <rect x="12" y="8" width="30" height="14" fill="#b04040" rx="2"/>
  <rect x="14" y="10" width="26" height="10" fill="#a03838" rx="1"/>
  <rect x="16" y="12" width="6" height="6" fill="none" stroke="#e8e070" stroke-width="1.5" rx="1"/>
  <rect x="24" y="12" width="6" height="6" fill="none" stroke="#e8e070" stroke-width="1.5" rx="1"/>
  <rect x="32" y="12" width="6" height="6" fill="none" stroke="#e8e070" stroke-width="1.5" rx="1"/>

  <!-- Clock on wall -->
  <circle cx="296" cy="16" r="8" fill="#e8e0d0"/>
  <circle cx="296" cy="16" r="7" fill="#f0ece4"/>
  <line x1="296" y1="16" x2="296" y2="11" stroke="#404040" stroke-width="1"/>
  <line x1="296" y1="16" x2="300" y2="16" stroke="#404040" stroke-width="1"/>

  <!-- Potted plant (right corner) -->
  <rect x="310" y="56" width="5" height="16" fill="#8a6a40"/>
  <circle cx="312.5" cy="54" r="5" fill="#4a8a58"/>
  <circle cx="309" cy="52" r="4" fill="#388048"/>
  <circle cx="316" cy="53" r="3.5" fill="#58a068"/>
</svg>