<svg preserveAspectRatio="none" xmlns="http://www.w3.org/2000/svg" viewBox="0 0 800 320" width="800" height="320">
<rect x="0" y="0" width="800" height="270" fill="#e8a4b0"/>
<rect x="0" y="270" width="800" height="6" fill="#9a5060"/>
<rect x="0" y="276" width="800" height="44" fill="#3a3030"/>
<rect x="0" y="0" width="800" height="60" fill="#f0c0ca" opacity="0.6"/>
<line x1="0" y1="60" x2="800" y2="60" stroke="#7a3848" stroke-width="1"/>
<rect x="120" y="0" width="6" height="40" fill="#3a2828"/>
<polygon points="100,40 146,40 138,55 108,55" fill="#d4d4f0" opacity="0.7"/>
<polygon points="100,40 146,40 138,55 108,55" stroke="#a8a8c8" stroke-width="0.5" fill="none"/>
<line x1="100" y1="40" x2="138" y2="55" stroke="#a8a8c8" stroke-width="0.3"/>
<line x1="146" y1="40" x2="108" y2="55" stroke="#a8a8c8" stroke-width="0.3"/>
<rect x="380" y="0" width="6" height="40" fill="#3a2828"/>
<polygon points="360,40 406,40 398,55 368,55" fill="#d4d4f0" opacity="0.7"/>
<polygon points="360,40 406,40 398,55 368,55" stroke="#a8a8c8" stroke-width="0.5" fill="none"/>
<line x1="360" y1="40" x2="398" y2="55" stroke="#a8a8c8" stroke-width="0.3"/>
<line x1="406" y1="40" x2="368" y2="55" stroke="#a8a8c8" stroke-width="0.3"/>
<rect x="640" y="0" width="6" height="40" fill="#3a2828"/>
<polygon points="620,40 666,40 658,55 628,55" fill="#d4d4f0" opacity="0.7"/>
<polygon points="620,40 666,40 658,55 628,55" stroke="#a8a8c8" stroke-width="0.5" fill="none"/>
<line x1="620" y1="40" x2="658" y2="55" stroke="#a8a8c8" stroke-width="0.3"/>
<line x1="666" y1="40" x2="628" y2="55" stroke="#a8a8c8" stroke-width="0.3"/>
<rect x="20" y="200" width="200" height="70" fill="#5a3050" rx="3"/>
<rect x="22" y="202" width="196" height="66" fill="#7a4060" rx="2"/>
<rect x="26" y="206" width="188" height="50" fill="#9a5878" rx="2"/>
<rect x="30" y="210" width="60" height="42" fill="#f4d0dc" rx="1"/>
<rect x="94" y="210" width="60" height="42" fill="#f4d0dc" rx="1"/>
<rect x="158" y="210" width="56" height="42" fill="#f4d0dc" rx="1"/>
<rect x="34" y="216" width="52" height="6" fill="#bf6f80"/>
<rect x="98" y="216" width="52" height="6" fill="#bf6f80"/>
<rect x="162" y="216" width="48" height="6" fill="#bf6f80"/>
<rect x="36" y="226" width="48" height="20" fill="#e8b4c0" rx="1"/>
<rect x="100" y="226" width="48" height="20" fill="#e8b4c0" rx="1"/>
<rect x="164" y="226" width="44" height="20" fill="#e8b4c0" rx="1"/>
<rect x="38" y="232" width="44" height="2" fill="#bf6f80"/>
<rect x="102" y="232" width="44" height="2" fill="#bf6f80"/>
<rect x="166" y="232" width="40" height="2" fill="#bf6f80"/>
<rect x="38" y="238" width="44" height="2" fill="#bf6f80"/>
<rect x="102" y="238" width="44" height="2" fill="#bf6f80"/>
<rect x="166" y="238" width="40" height="2" fill="#bf6f80"/>
<rect x="240" y="180" width="100" height="90" fill="#5a3030" rx="3"/>
<rect x="246" y="186" width="88" height="78" fill="#bf7888" rx="2"/>
<rect x="246" y="186" width="88" height="20" fill="#9a5868" rx="2"/>
<rect x="254" y="212" width="36" height="48" fill="#f4dde3" rx="2"/>
<rect x="294" y="212" width="36" height="48" fill="#f4dde3" rx="2"/>
<rect x="254" y="212" width="36" height="14" fill="#f8e8ec"/>
<rect x="294" y="212" width="36" height="14" fill="#f8e8ec"/>
<polygon points="240,180 340,180 350,160 230,160" fill="#7a3838"/>
<rect x="230" y="156" width="120" height="6" fill="#d4a04a"/>
<rect x="290" y="226" width="6" height="40" fill="#7a3848"/>
<polygon points="270,160 310,160 305,150 275,150" fill="#d4a04a"/>
<rect x="370" y="160" width="80" height="100" fill="#5a3838" rx="3"/>
<rect x="374" y="164" width="72" height="92" fill="#7a4848" rx="2"/>
<rect x="378" y="168" width="64" height="14" fill="#bf8068" rx="1"/>
<rect x="378" y="186" width="64" height="22" fill="#bf6f80" rx="1"/>
<rect x="382" y="190" width="56" height="6" fill="#9a4858"/>
<rect x="384" y="200" width="14" height="4" fill="#9a4858"/>
<rect x="408" y="200" width="14" height="4" fill="#9a4858"/>
<rect x="378" y="212" width="64" height="22" fill="#bf6f80" rx="1"/>
<rect x="382" y="216" width="56" height="6" fill="#9a4858"/>
<rect x="378" y="238" width="64" height="14" fill="#3a2020" rx="1"/>
<rect x="396" y="244" width="28" height="4" fill="#bf6f80"/>
<rect x="470" y="200" width="180" height="68" fill="#5a3030" rx="3"/>
<rect x="474" y="204" width="172" height="60" fill="#a06848" rx="2"/>
<rect x="478" y="208" width="60" height="20" fill="#bf6f80" rx="1"/>
<rect x="478" y="232" width="60" height="28" fill="#7a4838" rx="1"/>
<rect x="482" y="236" width="52" height="20" fill="#bf8060" rx="1"/>
<rect x="544" y="208" width="100" height="14" fill="#f4dde3" rx="1"/>
<rect x="548" y="212" width="92" height="6" fill="#d4a8b0"/>
<rect x="544" y="226" width="100" height="6" fill="#bf8060" rx="1"/>
<rect x="544" y="236" width="46" height="24" fill="#7a4838" rx="1"/>
<rect x="548" y="240" width="38" height="2" fill="#bf8060"/>
<rect x="548" y="246" width="38" height="2" fill="#bf8060"/>
<rect x="548" y="252" width="38" height="2" fill="#bf8060"/>
<rect x="596" y="236" width="48" height="24" fill="#7a4838" rx="1"/>
<rect x="600" y="240" width="40" height="14" fill="#3a2020" rx="1"/>
<rect x="606" y="244" width="28" height="6" fill="#7af0d0" opacity="0.6"/>
<rect x="660" y="200" width="60" height="68" fill="#5a3838" rx="3"/>
<rect x="662" y="202" width="56" height="64" fill="#7a4848" rx="2"/>
<rect x="666" y="206" width="48" height="14" fill="#a06848" rx="1"/>
<circle cx="690" cy="234" r="14" fill="#3a2020"/>
<circle cx="690" cy="234" r="10" fill="#5a3030"/>
<rect x="675" y="252" width="30" height="10" fill="#a06848" rx="1"/>
<rect x="730" y="180" width="60" height="80" fill="#5a3030" rx="3"/>
<rect x="732" y="182" width="56" height="76" fill="#bf7888" rx="2"/>
<rect x="738" y="190" width="44" height="20" fill="#f4dde3" rx="1"/>
<line x1="744" y1="200" x2="776" y2="200" stroke="#bf6f80" stroke-width="1"/>
<rect x="738" y="216" width="44" height="36" fill="#9a5868" rx="1"/>
<rect x="744" y="222" width="32" height="24" fill="#3a2020" rx="1"/>
<circle cx="760" cy="234" r="6" fill="#5a8090" opacity="0.5"/>
<rect x="20" y="170" width="40" height="6" fill="#d4a04a" rx="2"/>
<line x1="40" y1="176" x2="40" y2="200" stroke="#3a2828" stroke-width="0.8"/>
<polygon points="32,176 48,176 44,200 36,200" fill="#f8e078" opacity="0.7"/>
<line x1="280" y1="270" x2="700" y2="270" stroke="#5a4030" stroke-width="2"/>
<rect x="280" y="270" width="420" height="4" fill="#a06848" opacity="0.5" rx="1"/>
</svg>
