<svg preserveAspectRatio="none" xmlns="http://www.w3.org/2000/svg" viewBox="0 0 800 320" width="800" height="320">
<rect x="0" y="0" width="800" height="270" fill="#9a7060"/>
<rect x="0" y="270" width="800" height="6" fill="#5a3828"/>
<rect x="0" y="276" width="800" height="44" fill="#4a3022"/>
<rect x="0" y="0" width="800" height="50" fill="#946858"/>
<line x1="0" y1="50" x2="800" y2="50" stroke="#5a3828" stroke-width="2"/>
<rect x="0" y="48" width="800" height="3" fill="#a07830"/>
<rect x="40" y="20" width="60" height="2" fill="#a07830"/>
<rect x="40" y="22" width="3" height="14" fill="#a07830"/>
<rect x="97" y="22" width="3" height="14" fill="#a07830"/>
<circle cx="50" cy="40" r="6" fill="#b89048" stroke="#806820" stroke-width="0.5"/>
<circle cx="70" cy="40" r="6" fill="#b89048" stroke="#806820" stroke-width="0.5"/>
<circle cx="90" cy="40" r="6" fill="#b89048" stroke="#806820" stroke-width="0.5"/>
<rect x="240" y="20" width="60" height="2" fill="#a07830"/>
<rect x="240" y="22" width="3" height="14" fill="#a07830"/>
<rect x="297" y="22" width="3" height="14" fill="#a07830"/>
<circle cx="250" cy="40" r="6" fill="#b89048" stroke="#806820" stroke-width="0.5"/>
<circle cx="270" cy="40" r="6" fill="#b89048" stroke="#806820" stroke-width="0.5"/>
<circle cx="290" cy="40" r="6" fill="#b89048" stroke="#806820" stroke-width="0.5"/>
<rect x="440" y="20" width="60" height="2" fill="#a07830"/>
<rect x="440" y="22" width="3" height="14" fill="#a07830"/>
<rect x="497" y="22" width="3" height="14" fill="#a07830"/>
<circle cx="450" cy="40" r="6" fill="#b89048" stroke="#806820" stroke-width="0.5"/>
<circle cx="470" cy="40" r="6" fill="#b89048" stroke="#806820" stroke-width="0.5"/>
<circle cx="490" cy="40" r="6" fill="#b89048" stroke="#806820" stroke-width="0.5"/>
<rect x="640" y="20" width="60" height="2" fill="#a07830"/>
<rect x="640" y="22" width="3" height="14" fill="#a07830"/>
<rect x="697" y="22" width="3" height="14" fill="#a07830"/>
<circle cx="650" cy="40" r="6" fill="#b89048" stroke="#806820" stroke-width="0.5"/>
<circle cx="670" cy="40" r="6" fill="#b89048" stroke="#806820" stroke-width="0.5"/>
<circle cx="690" cy="40" r="6" fill="#b89048" stroke="#806820" stroke-width="0.5"/>
<rect x="20" y="170" width="240" height="100" fill="#403028" rx="2"/>
<rect x="20" y="170" width="240" height="14" fill="#5a3828"/>
<rect x="14" y="184" width="252" height="6" fill="#2a1410"/>
<rect x="20" y="190" width="240" height="76" fill="#886358" rx="2"/>
<rect x="20" y="190" width="240" height="22" fill="#74584a" rx="2"/>
<rect x="32" y="216" width="100" height="48" fill="#d8c8b0" rx="2"/>
<rect x="32" y="216" width="100" height="14" fill="#e4d5c2"/>
<rect x="42" y="220" width="80" height="6" fill="#886358" rx="1"/>
<rect x="148" y="216" width="100" height="48" fill="#d8c8b0" rx="2"/>
<rect x="148" y="216" width="100" height="14" fill="#e4d5c2"/>
<rect x="158" y="220" width="80" height="6" fill="#886358" rx="1"/>
<path d="M 32 216 L 90 220 L 132 230 L 70 240 L 32 256 Z" fill="#a89078" opacity="0.7"/>
<path d="M 148 216 L 200 218 L 248 232 L 200 240 L 148 256 Z" fill="#a89078" opacity="0.7"/>
<polygon points="50,154 230,154 240,170 40,170" fill="#5a3028"/>
<rect x="40" y="166" width="200" height="5" fill="#a07830"/>
<rect x="280" y="200" width="180" height="70" fill="#5a3a2a" rx="3"/>
<rect x="284" y="204" width="172" height="62" fill="#806448" rx="2"/>
<rect x="290" y="210" width="160" height="14" fill="#a07050" rx="2"/>
<rect x="290" y="228" width="160" height="14" fill="#a07050" rx="2"/>
<rect x="290" y="246" width="60" height="16" fill="#a07050" rx="2"/>
<rect x="354" y="246" width="60" height="16" fill="#a07050" rx="2"/>
<rect x="418" y="246" width="32" height="16" fill="#a07050" rx="2"/>
<rect x="298" y="232" width="36" height="6" fill="#b08868" opacity="0.8" rx="1"/>
<rect x="338" y="232" width="36" height="6" fill="#b08868" opacity="0.8" rx="1"/>
<rect x="378" y="232" width="36" height="6" fill="#b08868" opacity="0.8" rx="1"/>
<rect x="418" y="232" width="28" height="6" fill="#b08868" opacity="0.8" rx="1"/>
<rect x="290" y="252" width="40" height="6" fill="#b08868" opacity="0.8" rx="1"/>
<rect x="354" y="252" width="40" height="6" fill="#b08868" opacity="0.8" rx="1"/>
<ellipse cx="370" cy="220" rx="14" ry="3" fill="#3a2010" opacity="0.6"/>
<rect x="280" y="170" width="180" height="34" fill="#2a1818" rx="2"/>
<rect x="284" y="174" width="172" height="28" fill="#403028" rx="1"/>
<rect x="290" y="178" width="50" height="20" fill="#886358" rx="1"/>
<rect x="346" y="178" width="50" height="20" fill="#74584a" rx="1"/>
<rect x="402" y="178" width="50" height="20" fill="#5c3e30" rx="1"/>
<g transform="rotate(-7 350 188)">
<rect x="346" y="180" width="44" height="14" fill="#a89078" opacity="0.6"/>
</g>
<rect x="478" y="180" width="160" height="90" fill="#403028" rx="3"/>
<rect x="478" y="180" width="160" height="14" fill="#5a3828"/>
<rect x="484" y="200" width="148" height="64" fill="#806448" rx="2"/>
<rect x="488" y="204" width="48" height="58" fill="#5a3828" rx="1"/>
<rect x="492" y="212" width="40" height="6" fill="#a07050" rx="1"/>
<rect x="492" y="224" width="40" height="6" fill="#a07050" rx="1"/>
<rect x="492" y="236" width="40" height="6" fill="#a07050" rx="1"/>
<rect x="492" y="248" width="40" height="6" fill="#a07050" rx="1"/>
<rect x="540" y="204" width="44" height="58" fill="#5a3828" rx="1"/>
<circle cx="562" cy="216" r="3" fill="#886358"/>
<rect x="544" y="222" width="36" height="36" fill="#886358" rx="2"/>
<rect x="544" y="222" width="36" height="6" fill="#5c3e30" rx="1"/>
<rect x="588" y="204" width="44" height="58" fill="#5a3828" rx="1"/>
<rect x="592" y="208" width="36" height="22" fill="#a07050" rx="1"/>
<rect x="600" y="216" width="20" height="10" fill="#1a1008" rx="1"/>
<rect x="592" y="234" width="36" height="24" fill="#a07050" rx="1"/>
<line x1="592" y1="246" x2="628" y2="246" stroke="#1a1008" stroke-width="0.5"/>
<rect x="544" y="222" width="36" height="14" fill="#a89078" opacity="0.55"/>
<rect x="660" y="160" width="120" height="110" fill="#403028" rx="3"/>
<rect x="666" y="166" width="108" height="100" fill="#886358" rx="2"/>
<rect x="666" y="166" width="108" height="14" fill="#74584a"/>
<rect x="676" y="190" width="40" height="70" fill="#d8c8b0" rx="2"/>
<rect x="676" y="190" width="40" height="20" fill="#e4d5c2"/>
<rect x="724" y="190" width="40" height="70" fill="#d8c8b0" rx="2"/>
<rect x="724" y="190" width="40" height="20" fill="#e4d5c2"/>
<circle cx="696" cy="200" r="3" fill="#886358"/>
<circle cx="744" cy="200" r="3" fill="#886358"/>
<rect x="710" y="220" width="20" height="40" fill="#74584a" rx="1"/>
<circle cx="720" cy="232" r="3" fill="#b89048"/>
<path d="M 676 192 L 706 196 L 716 220 L 690 224 L 676 240 Z" fill="#a89078" opacity="0.65"/>
<path d="M 724 192 L 750 196 L 764 220 L 740 224 L 724 240 Z" fill="#a89078" opacity="0.65"/>
<rect x="170" y="280" width="280" height="6" fill="#5a3e28" opacity="0.6" rx="3"/>
<rect x="180" y="280" width="20" height="6" fill="#886358" opacity="0.7"/>
<rect x="220" y="280" width="20" height="6" fill="#886358" opacity="0.7"/>
<rect x="260" y="280" width="20" height="6" fill="#886358" opacity="0.7"/>
<rect x="300" y="280" width="20" height="6" fill="#886358" opacity="0.7"/>
<rect x="340" y="280" width="20" height="6" fill="#886358" opacity="0.7"/>
<rect x="380" y="280" width="20" height="6" fill="#886358" opacity="0.7"/>
<rect x="420" y="280" width="20" height="6" fill="#886358" opacity="0.7"/>
<ellipse cx="100" cy="305" rx="16" ry="4" fill="#3a2010" opacity="0.55"/>
<ellipse cx="500" cy="312" rx="22" ry="4" fill="#3a2010" opacity="0.5"/>
<ellipse cx="700" cy="306" rx="14" ry="4" fill="#3a2010" opacity="0.5"/>
<circle cx="180" cy="298" r="2" fill="#1a1008" opacity="0.7"/>
<circle cx="380" cy="302" r="2.4" fill="#1a1008" opacity="0.6"/>
<circle cx="600" cy="298" r="2" fill="#1a1008" opacity="0.65"/>
<circle cx="760" cy="313" r="2" fill="#1a1008" opacity="0.65"/>
<rect x="240" y="296" width="14" height="5" fill="#886358" rx="1" transform="rotate(-22 247 298)"/>
<rect x="540" y="302" width="12" height="4" fill="#5a3820" rx="1" transform="rotate(15 546 304)"/>
<path d="M 460 295 L 468 290 L 474 297 L 466 302 Z" fill="#b89878" opacity="0.7"/>
<rect x="78" y="278" width="22" height="14" fill="#b09078" rx="4" transform="rotate(20 89 285)" opacity="0.8"/>
<rect x="700" y="278" width="22" height="14" fill="#a89078" rx="4" transform="rotate(-15 711 285)" opacity="0.8"/>
<circle cx="160" cy="160" r="1.5" fill="#1a1008" opacity="0.6"/>
<circle cx="730" cy="156" r="1.5" fill="#1a1008" opacity="0.6"/>
</svg>
