<svg preserveAspectRatio="none" xmlns="http://www.w3.org/2000/svg" viewBox="0 0 800 320" width="800" height="320">
<rect x="0" y="0" width="800" height="275" fill="#d98a98"/>
<rect x="0" y="275" width="800" height="10" fill="#b56071"/>
<rect x="0" y="285" width="800" height="35" fill="#c87789"/>
<rect x="144" y="6" width="32" height="7" fill="#f0d4da" rx="3"/>
<rect x="151" y="13" width="18" height="5" fill="#f8dde2" rx="2"/>
<rect x="304" y="6" width="32" height="7" fill="#f0d4da" rx="3"/>
<rect x="311" y="13" width="18" height="5" fill="#f8dde2" rx="2"/>
<rect x="464" y="6" width="32" height="7" fill="#f0d4da" rx="3"/>
<rect x="471" y="13" width="18" height="5" fill="#f8dde2" rx="2"/>
<rect x="624" y="6" width="32" height="7" fill="#f0d4da" rx="3"/>
<rect x="631" y="13" width="18" height="5" fill="#f8dde2" rx="2"/>
<rect x="28" y="34" width="70" height="56" fill="#bf6f80" rx="4"/>
<rect x="31" y="37" width="30.5" height="23.0" fill="#f3c3cf" rx="2"/>
<rect x="64.5" y="37" width="30.5" height="23.0" fill="#f3c3cf" rx="2"/>
<rect x="31" y="63.0" width="30.5" height="23.0" fill="#e9a9b8" rx="2"/>
<rect x="64.5" y="63.0" width="30.5" height="23.0" fill="#e9a9b8" rx="2"/>
<rect x="130" y="40" width="56" height="40" fill="#bf6f80" rx="3"/>
<rect x="134" y="44" width="48" height="32" fill="#f0d4da" rx="2"/>
<rect x="142" y="59.2" width="32" height="8" fill="#d9a1ae" rx="4"/>
<rect x="222" y="34" width="70" height="56" fill="#bf6f80" rx="4"/>
<rect x="225" y="37" width="30.5" height="23.0" fill="#f3c3cf" rx="2"/>
<rect x="258.5" y="37" width="30.5" height="23.0" fill="#f3c3cf" rx="2"/>
<rect x="225" y="63.0" width="30.5" height="23.0" fill="#e9a9b8" rx="2"/>
<rect x="258.5" y="63.0" width="30.5" height="23.0" fill="#e9a9b8" rx="2"/>
<rect x="324" y="40" width="56" height="40" fill="#bf6f80" rx="3"/>
<rect x="328" y="44" width="48" height="32" fill="#f0d4da" rx="2"/>
<rect x="336" y="59.2" width="32" height="8" fill="#d9a1ae" rx="4"/>
<rect x="430" y="34" width="70" height="56" fill="#bf6f80" rx="4"/>
<rect x="433" y="37" width="30.5" height="23.0" fill="#f3c3cf" rx="2"/>
<rect x="466.5" y="37" width="30.5" height="23.0" fill="#f3c3cf" rx="2"/>
<rect x="433" y="63.0" width="30.5" height="23.0" fill="#e9a9b8" rx="2"/>
<rect x="466.5" y="63.0" width="30.5" height="23.0" fill="#e9a9b8" rx="2"/>
<rect x="534" y="40" width="56" height="40" fill="#bf6f80" rx="3"/>
<rect x="538" y="44" width="48" height="32" fill="#f0d4da" rx="2"/>
<rect x="546" y="59.2" width="32" height="8" fill="#d9a1ae" rx="4"/>
<rect x="694" y="34" width="70" height="56" fill="#bf6f80" rx="4"/>
<rect x="697" y="37" width="30.5" height="23.0" fill="#f3c3cf" rx="2"/>
<rect x="730.5" y="37" width="30.5" height="23.0" fill="#f3c3cf" rx="2"/>
<rect x="697" y="63.0" width="30.5" height="23.0" fill="#e9a9b8" rx="2"/>
<rect x="730.5" y="63.0" width="30.5" height="23.0" fill="#e9a9b8" rx="2"/>
<rect x="22" y="159" width="40" height="132" fill="#8a4b5a" rx="2"/>
<rect x="26" y="165" width="14.0" height="120" fill="#9a5a6a" rx="2"/>
<rect x="44.0" y="165" width="14.0" height="120" fill="#9a5a6a" rx="2"/>
<rect x="39.0" y="222.36" width="4" height="12" fill="#f0d4da" rx="2"/>
<rect x="47.0" y="222.36" width="4" height="12" fill="#f0d4da" rx="2"/>
<rect x="86" y="239" width="150" height="52" fill="#8a4b5a" rx="6"/>
<rect x="94" y="243" width="134" height="42" fill="#f0d4da" rx="5"/>
<rect x="102" y="249" width="55.0" height="22" fill="#f3c3cf" rx="4"/>
<rect x="165.0" y="249" width="55.0" height="22" fill="#f3c3cf" rx="4"/>
<rect x="76" y="237" width="16" height="56" fill="#9a5a6a" rx="5"/>
<rect x="230" y="237" width="16" height="56" fill="#9a5a6a" rx="5"/>
<rect x="250" y="267" width="84" height="7" fill="#9a5a6a" rx="3"/>
<rect x="258" y="274" width="5" height="17" fill="#9a5a6a" rx="2"/>
<rect x="321" y="274" width="5" height="17" fill="#9a5a6a" rx="2"/>
<rect x="268" y="269" width="18" height="5" fill="#f0d4da" rx="2"/>
<circle cx="300" cy="271" r="3" fill="#c27a8a"/>
<rect x="346" y="269" width="38" height="22" fill="#bf6f80" rx="5"/>
<rect x="350" y="273" width="30" height="14" fill="#f0d4da" rx="4"/>
<rect x="392" y="273.4" width="19.8" height="17.6" fill="#9a5a6a" rx="2"/>
<polygon points="401.9,251.39999999999998 390.9,269.0 402.9,267.9" fill="#d998aa"/>
<polygon points="401.9,255.79999999999998 412.9,266.79999999999995 403.9,269.0" fill="#d998aa"/>
<polygon points="401.9,246.99999999999997 399.9,266.79999999999995 410.7,260.2" fill="#c27a8a"/>
<rect x="462" y="191" width="16" height="100" fill="#9a5a6a" rx="2"/>
<rect x="632" y="191" width="16" height="100" fill="#9a5a6a" rx="2"/>
<rect x="462" y="221" width="186" height="10" fill="#79424f" rx="3"/>
<rect x="470" y="213" width="170" height="78" fill="#8a4b5a" rx="4"/>
<rect x="476" y="221" width="158" height="60" fill="#f0d4da" rx="4"/>
<rect x="480" y="227" width="73.0" height="18" fill="#f3c3cf" rx="3"/>
<rect x="557.0" y="227" width="73.0" height="18" fill="#f3c3cf" rx="3"/>
<rect x="478" y="243" width="154" height="44" fill="#bf6f80" rx="3"/>
<rect x="478" y="247" width="154" height="40" fill="#e9a9b8" rx="3"/>
<rect x="484" y="251" width="142" height="28" fill="#f0d4da" rx="3"/>
<rect x="652" y="243" width="32" height="48" fill="#9a5a6a" rx="2"/>
<rect x="656" y="249" width="24" height="12" fill="#8a4b5a" rx="2"/>
<rect x="658" y="275" width="20" height="8" fill="#f0d4da" rx="2"/>
<rect x="665.0" y="217" width="6" height="26" fill="#8a4b5a" rx="2"/>
<rect x="656.0" y="207" width="24" height="12" fill="#f0d4da" rx="4"/>
<rect x="696" y="233" width="84" height="8" fill="#8a4b5a" rx="3"/>
<rect x="700" y="241" width="6" height="50" fill="#8a4b5a" rx="2"/>
<rect x="770" y="241" width="6" height="50" fill="#8a4b5a" rx="2"/>
<rect x="714" y="201" width="42" height="24" fill="#463039" rx="2"/>
<rect x="730" y="225" width="10" height="8" fill="#463039" rx="2"/>
<rect x="672" y="267.0" width="26.0" height="8.0" fill="#9a5a6a" rx="2"/>
<rect x="676.0" y="247.0" width="18.0" height="20.0" fill="#9a5a6a" rx="2"/>
<line x1="676.0" y1="275.0" x2="673.0" y2="291" stroke="#8a4b5a" stroke-width="2" stroke-linecap="round"/>
<line x1="694.0" y1="275.0" x2="699.0" y2="291" stroke="#8a4b5a" stroke-width="2" stroke-linecap="round"/>
<line x1="678.0" y1="275.0" x2="681.0" y2="291" stroke="#8a4b5a" stroke-width="2" stroke-linecap="round"/>
<line x1="692.0" y1="275.0" x2="689.0" y2="291" stroke="#8a4b5a" stroke-width="2" stroke-linecap="round"/>
<rect x="96" y="271" width="260" height="20" fill="#f3c3cf" rx="6"/>
<rect x="102" y="276" width="248" height="10" fill="#f0d4da" rx="5"/>
<rect x="484" y="271" width="154" height="20" fill="#f3c3cf" rx="6"/>
<rect x="490" y="276" width="142" height="10" fill="#f0d4da" rx="5"/>
</svg>