<svg preserveAspectRatio="none" xmlns="http://www.w3.org/2000/svg" viewBox="0 0 320 320" width="320" height="320">
<rect x="0" y="0" width="320" height="270" fill="#e8c4cc"/>
<rect x="0" y="180" width="320" height="90" fill="#d9a8b2"/>
<rect x="0" y="178" width="320" height="3" fill="#8a4858"/>
<rect x="0" y="270" width="320" height="8" fill="#6a3848"/>
<rect x="0" y="278" width="320" height="42" fill="#5a4838"/>
<rect x="0" y="278" width="320" height="42" fill="url(#wood)" opacity="0.4"/>
<defs>
<pattern id="wood" x="0" y="0" width="40" height="42" patternUnits="userSpaceOnUse">
<rect width="40" height="42" fill="#5a4838"/>
<line x1="0" y1="0" x2="0" y2="42" stroke="#3a2818" stroke-width="1"/>
<line x1="20" y1="0" x2="20" y2="42" stroke="#4a3828" stroke-width="0.5"/>
</pattern>
</defs>
<rect x="160" y="0" width="2" height="20" fill="#3a2828"/>
<polygon points="140,20 182,20 178,40 144,40" fill="#d4a050" stroke="#a07820" stroke-width="1"/>
<rect x="144,40 178,40 175,55 147,55" fill="#bf8838"/>
<polygon points="144,40 178,40 175,55 147,55" fill="#bf8838"/>
<line x1="161" y1="20" x2="161" y2="55" stroke="#8a6020" stroke-width="0.5" opacity="0.5"/>
<rect x="40" y="100" width="100" height="170" fill="#8a4858" rx="4"/>
<polygon points="35,100 145,100 90,60" fill="#7a3848"/>
<rect x="48" y="108" width="84" height="22" fill="#f4dde3" rx="2"/>
<rect x="56" y="112" width="68" height="14" fill="#d9a1ae" rx="1"/>
<rect x="48" y="138" width="84" height="120" fill="#f4dde3" rx="2"/>
<rect x="54" y="144" width="36" height="40" fill="#bf6f80" rx="3"/>
<rect x="92" y="144" width="36" height="40" fill="#bf6f80" rx="3"/>
<rect x="50" y="186" width="80" height="68" fill="#e8b8c4" rx="2"/>
<line x1="50" y1="220" x2="130" y2="220" stroke="#bf6f80" stroke-width="1"/>
<rect x="35" y="100" width="6" height="170" fill="#5a3040" rx="1"/>
<rect x="139" y="100" width="6" height="170" fill="#5a3040" rx="1"/>
<rect x="160" y="200" width="40" height="60" fill="#4a3022" rx="2"/>
<rect x="162" y="202" width="36" height="50" fill="#6a4838" rx="1"/>
<rect x="166" y="206" width="28" height="10" fill="#8a6548" rx="1"/>
<rect x="166" y="220" width="28" height="10" fill="#8a6548" rx="1"/>
<rect x="166" y="234" width="28" height="14" fill="#8a6548" rx="1"/>
<circle cx="172" cy="240" r="2" fill="#d4b860"/>
<circle cx="180" cy="225" r="1.5" fill="#d4b860"/>
<rect x="158" y="180" width="44" height="22" fill="#634540" rx="2"/>
<polygon points="170,160 190,160 195,180 165,180" fill="#a0743a"/>
<rect x="172" y="166" width="16" height="2" fill="#d4b860"/>
<rect x="174" y="170" width="12" height="2" fill="#d4b860"/>
<rect x="220" y="100" width="80" height="100" fill="#7a4252" rx="3"/>
<rect x="226" y="106" width="68" height="88" fill="#f4dde3" rx="1"/>
<line x1="226" y1="128" x2="294" y2="128" stroke="#bf6f80" stroke-width="0.8"/>
<line x1="226" y1="150" x2="294" y2="150" stroke="#bf6f80" stroke-width="0.8"/>
<line x1="226" y1="172" x2="294" y2="172" stroke="#bf6f80" stroke-width="0.8"/>
<rect x="232" y="112" width="20" height="10" fill="#9a6878" rx="1"/>
<rect x="258" y="112" width="14" height="10" fill="#bf6f80" rx="1"/>
<rect x="278" y="112" width="12" height="10" fill="#8a4858" rx="1"/>
<rect x="232" y="134" width="16" height="10" fill="#bf6f80" rx="1"/>
<rect x="254" y="134" width="22" height="10" fill="#9a6878" rx="1"/>
<rect x="280" y="134" width="12" height="10" fill="#8a4858" rx="1"/>
<rect x="232" y="156" width="14" height="10" fill="#8a4858" rx="1"/>
<rect x="252" y="156" width="20" height="10" fill="#bf6f80" rx="1"/>
<rect x="276" y="156" width="16" height="10" fill="#9a6878" rx="1"/>
<rect x="232" y="178" width="22" height="10" fill="#9a6878" rx="1"/>
<rect x="258" y="178" width="14" height="10" fill="#bf6f80" rx="1"/>
<rect x="278" y="178" width="12" height="10" fill="#8a4858" rx="1"/>
<rect x="220" y="220" width="80" height="50" fill="#a0654a" rx="3"/>
<rect x="222" y="222" width="76" height="46" fill="#bf8060" rx="2"/>
<rect x="226" y="226" width="68" height="38" fill="#8a4830" rx="2"/>
<line x1="226" y1="245" x2="294" y2="245" stroke="#5a3020" stroke-width="0.5"/>
<rect x="240" y="232" width="40" height="10" fill="#d4a878" rx="1"/>
<rect x="245" y="234" width="30" height="6" fill="#a87858" rx="1"/>
<rect x="240" y="250" width="40" height="10" fill="#d4a878" rx="1"/>
<rect x="245" y="252" width="30" height="6" fill="#a87858" rx="1"/>
<ellipse cx="280" cy="270" rx="34" ry="8" fill="#5a3838" opacity="0.4"/>
<rect x="14" y="220" width="22" height="50" fill="#634540" rx="3"/>
<rect x="16" y="222" width="18" height="14" fill="#a06848" rx="1"/>
<polygon points="10,200 14,222 36,222 40,200" fill="#3a7048"/>
<polygon points="10,205 14,222 36,222 40,205" fill="#4a8858" opacity="0.7"/>
<polygon points="14,195 18,222 32,222 36,195" fill="#5a9868" opacity="0.6"/>
<circle cx="20" cy="200" r="2" fill="#d68a3a"/>
<circle cx="30" cy="195" r="2" fill="#d68a3a"/>
<circle cx="25" cy="210" r="1.5" fill="#d68a3a"/>
</svg>
