<svg preserveAspectRatio="none" xmlns="http://www.w3.org/2000/svg" viewBox="0 0 640 320" width="640" height="320">
  <defs>
    <linearGradient id="wallGlow" x1="0" y1="0" x2="0" y2="1">
      <stop offset="0%" stop-color="#d8c0a1"/>
      <stop offset="100%" stop-color="#ccb08e"/>
    </linearGradient>
    <linearGradient id="floorGrad" x1="0" y1="0" x2="0" y2="1">
      <stop offset="0%" stop-color="#bb9b74"/>
      <stop offset="100%" stop-color="#a9845f"/>
    </linearGradient>
  </defs>

  <!-- Wall / floor bands -->
  <rect x="0" y="0" width="640" height="255" fill="url(#wallGlow)"/>
  <rect x="0" y="255" width="640" height="10" fill="#8f6d48"/>
  <rect x="0" y="265" width="640" height="55" fill="url(#floorGrad)"/>

  <!-- Repeating background arches, offset so seams continue cleanly -->
  <g opacity="0.28" fill="none" stroke="#f2e2c9" stroke-width="6">
    <path d="M -40 215 L -40 78 Q -40 38 0 38 L 40 38 Q 80 38 80 78 L 80 215"/>
    <path d="M 120 215 L 120 78 Q 120 38 160 38 L 200 38 Q 240 38 240 78 L 240 215"/>
    <path d="M 280 215 L 280 78 Q 280 38 320 38 L 360 38 Q 400 38 400 78 L 400 215"/>
    <path d="M 440 215 L 440 78 Q 440 38 480 38 L 520 38 Q 560 38 560 78 L 560 215"/>
    <path d="M 600 215 L 600 78 Q 600 38 640 38 L 680 38 Q 720 38 720 78 L 720 215"/>
  </g>
  <g opacity="0.2" fill="#dcc4a3">
    <rect x="16" y="52" width="48" height="150" rx="18"/>
    <rect x="176" y="52" width="48" height="150" rx="18"/>
    <rect x="336" y="52" width="48" height="150" rx="18"/>
    <rect x="496" y="52" width="48" height="150" rx="18"/>
  </g>

  <!-- Periodic ceiling lights -->
  <g>
    <rect x="28" y="14" width="40" height="8" rx="4" fill="#ead8bf"/>
    <rect x="38" y="22" width="20" height="5" rx="2.5" fill="#fbf4e8"/>
    <rect x="188" y="14" width="40" height="8" rx="4" fill="#ead8bf"/>
    <rect x="198" y="22" width="20" height="5" rx="2.5" fill="#fbf4e8"/>
    <rect x="348" y="14" width="40" height="8" rx="4" fill="#ead8bf"/>
    <rect x="358" y="22" width="20" height="5" rx="2.5" fill="#fbf4e8"/>
    <rect x="508" y="14" width="40" height="8" rx="4" fill="#ead8bf"/>
    <rect x="518" y="22" width="20" height="5" rx="2.5" fill="#fbf4e8"/>
  </g>

  <!-- Wall art / sconces laid out symmetrically -->
  <g>
    <rect x="96" y="62" width="46" height="32" rx="4" fill="#9f7a56"/>
    <rect x="101" y="67" width="36" height="22" rx="3" fill="#f1e6d4"/>
    <rect x="110" y="74" width="18" height="8" rx="4" fill="#c9a57a"/>

    <rect x="498" y="62" width="46" height="32" rx="4" fill="#9f7a56"/>
    <rect x="503" y="67" width="36" height="22" rx="3" fill="#f1e6d4"/>
    <rect x="512" y="74" width="18" height="8" rx="4" fill="#c9a57a"/>

    <rect x="160" y="86" width="14" height="34" rx="5" fill="#6f5439"/>
    <rect x="154" y="78" width="26" height="10" rx="5" fill="#f2e2c9"/>
    <rect x="466" y="86" width="14" height="34" rx="5" fill="#6f5439"/>
    <rect x="460" y="78" width="26" height="10" rx="5" fill="#f2e2c9"/>
  </g>

  <!-- Reception sign -->
  <rect x="258" y="54" width="124" height="22" rx="6" fill="#725337"/>
  <rect x="265" y="60" width="110" height="10" rx="5" fill="#f2e2c9"/>
  <rect x="282" y="63" width="14" height="4" rx="2" fill="#b88c62"/>
  <rect x="302" y="63" width="14" height="4" rx="2" fill="#b88c62"/>
  <rect x="322" y="63" width="14" height="4" rx="2" fill="#b88c62"/>
  <rect x="342" y="63" width="14" height="4" rx="2" fill="#b88c62"/>

  <!-- Center reception desk -->
  <rect x="210" y="180" width="220" height="58" rx="8" fill="#725337"/>
  <rect x="220" y="168" width="200" height="18" rx="7" fill="#9a7651"/>
  <rect x="238" y="188" width="52" height="34" rx="6" fill="#f1e6d4"/>
  <rect x="350" y="188" width="52" height="34" rx="6" fill="#f1e6d4"/>
  <rect x="302" y="188" width="36" height="34" rx="4" fill="#876344"/>
  <rect x="310" y="134" width="20" height="34" rx="4" fill="#5f4730"/>
  <rect x="286" y="140" width="68" height="22" rx="4" fill="#3d3024"/>
  <rect x="315" y="162" width="10" height="6" rx="2" fill="#5f4730"/>
  <rect x="248" y="150" width="12" height="8" rx="3" fill="#d8bb92"/>
  <rect x="380" y="150" width="14" height="8" rx="3" fill="#d8bb92"/>

  <!-- Seating clusters -->
  <g>
    <rect x="84" y="216" width="64" height="24" rx="6" fill="#8a6544"/>
    <rect x="88" y="198" width="56" height="22" rx="8" fill="#f7f0e5"/>
    <rect x="95" y="189" width="42" height="11" rx="5" fill="#f2e2c9"/>
    <rect x="92" y="240" width="6" height="18" rx="2" fill="#6a5036"/>
    <rect x="134" y="240" width="6" height="18" rx="2" fill="#6a5036"/>

    <rect x="492" y="216" width="64" height="24" rx="6" fill="#8a6544"/>
    <rect x="496" y="198" width="56" height="22" rx="8" fill="#f7f0e5"/>
    <rect x="503" y="189" width="42" height="11" rx="5" fill="#f2e2c9"/>
    <rect x="500" y="240" width="6" height="18" rx="2" fill="#6a5036"/>
    <rect x="542" y="240" width="6" height="18" rx="2" fill="#6a5036"/>

    <rect x="160" y="222" width="30" height="8" rx="4" fill="#caa076"/>
    <line x1="169" y1="230" x2="164" y2="258" stroke="#6a5036" stroke-width="3" stroke-linecap="round"/>
    <line x1="181" y1="230" x2="186" y2="258" stroke="#6a5036" stroke-width="3" stroke-linecap="round"/>

    <rect x="450" y="222" width="30" height="8" rx="4" fill="#caa076"/>
    <line x1="459" y1="230" x2="454" y2="258" stroke="#6a5036" stroke-width="3" stroke-linecap="round"/>
    <line x1="471" y1="230" x2="476" y2="258" stroke="#6a5036" stroke-width="3" stroke-linecap="round"/>
  </g>

  <!-- Edge-safe plants and repeated floor runner -->
  <g>
    <rect x="36" y="226" width="10" height="30" rx="3" fill="#8a6b4e"/>
    <circle cx="41" cy="220" r="12" fill="#a6784f"/>
    <circle cx="34" cy="214" r="8" fill="#b88c62"/>
    <circle cx="48" cy="214" r="8" fill="#b88c62"/>

    <rect x="594" y="226" width="10" height="30" rx="3" fill="#8a6b4e"/>
    <circle cx="599" cy="220" r="12" fill="#a6784f"/>
    <circle cx="592" cy="214" r="8" fill="#b88c62"/>
    <circle cx="606" cy="214" r="8" fill="#b88c62"/>
  </g>

  <!-- Carpet rhythm extends across tile edges -->
  <g>
    <rect x="0" y="276" width="640" height="24" rx="10" fill="#b38b5f"/>
    <rect x="0" y="283" width="640" height="10" rx="5" fill="#ead9b8" opacity="0.9"/>
    <g fill="#9c744a" opacity="0.8">
      <rect x="18" y="279" width="22" height="18" rx="5"/>
      <rect x="98" y="279" width="22" height="18" rx="5"/>
      <rect x="178" y="279" width="22" height="18" rx="5"/>
      <rect x="258" y="279" width="22" height="18" rx="5"/>
      <rect x="338" y="279" width="22" height="18" rx="5"/>
      <rect x="418" y="279" width="22" height="18" rx="5"/>
      <rect x="498" y="279" width="22" height="18" rx="5"/>
      <rect x="578" y="279" width="22" height="18" rx="5"/>
    </g>
  </g>
</svg>
