<svg preserveAspectRatio="none" xmlns="http://www.w3.org/2000/svg" viewBox="0 0 180 80" width="180" height="80">
  <!-- Board room -->

  <!-- Back wall -->
  <rect x="0" y="0" width="180" height="76" fill="#9aacbb"/>

  <!-- Baseboard -->
  <rect x="0" y="72" width="180" height="4" fill="#7a8c9c"/>

  <!-- Floor -->
  <rect x="0" y="76" width="180" height="4" fill="#8494a4" rx="1"/>

  <!-- Ceiling lights -->
  <rect x="22" y="0" width="16" height="3" fill="#b8c8d4" rx="1"/>
  <rect x="26" y="3" width="8" height="2" fill="#ccdae4"/>
  <rect x="82" y="0" width="16" height="3" fill="#b8c8d4" rx="1"/>
  <rect x="86" y="3" width="8" height="2" fill="#ccdae4"/>
  <rect x="142" y="0" width="16" height="3" fill="#b8c8d4" rx="1"/>
  <rect x="146" y="3" width="8" height="2" fill="#ccdae4"/>

  <!-- Projector screen on back wall -->
  <rect x="62" y="6" width="56" height="26" fill="#3a4654" rx="1"/>
  <rect x="64" y="8" width="52" height="22" fill="#e4ecf2" rx="1"/>
  <!-- Slide content hint -->
  <rect x="68" y="12" width="30" height="2" fill="#7a8c9c" rx="1"/>
  <rect x="68" y="16" width="22" height="1.5" fill="#9aacbb" rx="1"/>
  <rect x="68" y="19" width="26" height="1.5" fill="#9aacbb" rx="1"/>
  <rect x="68" y="22" width="18" height="1.5" fill="#9aacbb" rx="1"/>
  <!-- Mount cord -->
  <rect x="89" y="4" width="2" height="4" fill="#6a7a8a"/>

  <!-- Far-side chair backs (behind table) -->
  <rect x="30" y="40" width="10" height="10" fill="#485e6e" rx="2"/>
  <rect x="58" y="40" width="10" height="10" fill="#485e6e" rx="2"/>
  <rect x="86" y="40" width="10" height="10" fill="#485e6e" rx="2"/>
  <rect x="114" y="40" width="10" height="10" fill="#485e6e" rx="2"/>
  <rect x="142" y="40" width="10" height="10" fill="#485e6e" rx="2"/>

  <!-- Conference table -->
  <rect x="22" y="50" width="136" height="6" fill="#6e8090" rx="3"/>
  <rect x="24" y="50" width="132" height="2" fill="#8a9cac" rx="1"/>
  <rect x="26" y="56" width="4" height="16" fill="#5e7080"/>
  <rect x="88" y="56" width="4" height="16" fill="#5e7080"/>
  <rect x="150" y="56" width="4" height="16" fill="#5e7080"/>

  <!-- Table items: laptop, coffee, folder -->
  <rect x="40" y="46" width="10" height="4" fill="#4a5e6e" rx="1"/>
  <rect x="74" y="47" width="5" height="3" fill="#7a6a5a" rx="1"/>
  <rect x="104" y="46" width="12" height="4" fill="#b8a890" rx="1"/>
  <rect x="130" y="47" width="9" height="3" fill="#4a5e6e" rx="1"/>

  <!-- Near-side chairs (in front of table) -->
  <!-- Chair A -->
  <rect x="32" y="58" width="12" height="10" fill="#506878" rx="2"/>
  <rect x="33" y="56" width="10" height="4" fill="#485e6e" rx="2"/>
  <rect x="36" y="68" width="4" height="4" fill="#4a5c6c"/>
  <rect x="32" y="71" width="12" height="2" fill="#4a5c6c" rx="1"/>
  <!-- Chair B -->
  <rect x="60" y="58" width="12" height="10" fill="#506878" rx="2"/>
  <rect x="61" y="56" width="10" height="4" fill="#485e6e" rx="2"/>
  <rect x="64" y="68" width="4" height="4" fill="#4a5c6c"/>
  <rect x="60" y="71" width="12" height="2" fill="#4a5c6c" rx="1"/>
  <!-- Chair C -->
  <rect x="88" y="58" width="12" height="10" fill="#506878" rx="2"/>
  <rect x="89" y="56" width="10" height="4" fill="#485e6e" rx="2"/>
  <rect x="92" y="68" width="4" height="4" fill="#4a5c6c"/>
  <rect x="88" y="71" width="12" height="2" fill="#4a5c6c" rx="1"/>
  <!-- Chair D -->
  <rect x="116" y="58" width="12" height="10" fill="#506878" rx="2"/>
  <rect x="117" y="56" width="10" height="4" fill="#485e6e" rx="2"/>
  <rect x="120" y="68" width="4" height="4" fill="#4a5c6c"/>
  <rect x="116" y="71" width="12" height="2" fill="#4a5c6c" rx="1"/>
  <!-- Chair E -->
  <rect x="144" y="58" width="12" height="10" fill="#506878" rx="2"/>
  <rect x="145" y="56" width="10" height="4" fill="#485e6e" rx="2"/>
  <rect x="148" y="68" width="4" height="4" fill="#4a5c6c"/>
  <rect x="144" y="71" width="12" height="2" fill="#4a5c6c" rx="1"/>

  <!-- Water cooler left corner -->
  <rect x="6" y="46" width="8" height="22" fill="#7e94a4" rx="1"/>
  <rect x="5" y="43" width="10" height="5" fill="#90a8b8" rx="2"/>
  <circle cx="10" cy="45" r="2" fill="#a0c0d8"/>

  <!-- Plant right corner -->
  <rect x="170" y="52" width="4" height="20" fill="#5e7080"/>
  <circle cx="172" cy="50" r="5" fill="#5a7a68"/>
  <circle cx="168" cy="48" r="4" fill="#4e7060"/>
  <circle cx="176" cy="49" r="3.5" fill="#5e8872"/>
</svg>
