<svg preserveAspectRatio="none" xmlns="http://www.w3.org/2000/svg" viewBox="0 0 80 80" width="80" height="80">
  <!-- Back wall - concrete garage -->
  <rect x="0" y="0" width="80" height="72" fill="#7a7a76"/>

  <!-- Concrete panel seams -->
  <rect x="0" y="32" width="80" height="1" fill="#585854"/>
  <rect x="40" y="0" width="1" height="32" fill="#585854"/>

  <!-- Baseboard -->
  <rect x="0" y="72" width="80" height="4" fill="#484844"/>

  <!-- Floor - asphalt -->
  <rect x="0" y="76" width="80" height="4" fill="#484844"/>
  <!-- Parking space division stripes (single space, stripes at both edges) -->
  <rect x="2" y="76" width="2" height="4" fill="#d8c040"/>
  <rect x="76" y="76" width="2" height="4" fill="#d8c040"/>

  <!-- Ceiling fluorescent -->
  <rect x="20" y="0" width="40" height="3" fill="#c8c8b8"/>
  <rect x="24" y="3" width="32" height="2" fill="#a8a8a0"/>

  <!-- Support pillars (left and right edges) -->
  <rect x="4" y="6" width="4" height="60" fill="#8a8a86"/>
  <rect x="4" y="6" width="4" height="2" fill="#6a6a66"/>
  <rect x="4" y="64" width="4" height="2" fill="#6a6a66"/>
  <rect x="72" y="6" width="4" height="60" fill="#8a8a86"/>
  <rect x="72" y="6" width="4" height="2" fill="#6a6a66"/>
  <rect x="72" y="64" width="4" height="2" fill="#6a6a66"/>

  <!-- "P" sign on wall -->
  <rect x="14" y="10" width="14" height="14" fill="#2a5090" rx="1"/>
  <rect x="18" y="14" width="4" height="6" fill="#f0f0e8"/>
  <rect x="18" y="14" width="6" height="2" fill="#f0f0e8"/>
  <rect x="22" y="16" width="2" height="2" fill="#f0f0e8"/>

  <!-- Wall arrow sign -->
  <rect x="52" y="12" width="16" height="8" fill="#d8c040" rx="1"/>
  <path d="M 56 16 L 62 16 L 62 14 L 66 17 L 62 20 L 62 18 L 56 18 Z" fill="#202020"/>

  <!-- Car (centered in single parking space) -->
  <!-- Car body -->
  <rect x="12" y="54" width="56" height="16" fill="#a03838" rx="3"/>
  <!-- Car top / cabin -->
  <rect x="22" y="46" width="36" height="12" fill="#882828" rx="3"/>
  <!-- Windshield (front) -->
  <rect x="24" y="48" width="12" height="8" fill="#8aa8c0" opacity="0.9" rx="1"/>
  <!-- Windshield (rear) -->
  <rect x="44" y="48" width="12" height="8" fill="#8aa8c0" opacity="0.9" rx="1"/>
  <!-- Headlight -->
  <rect x="12" y="58" width="4" height="4" fill="#f0e090" rx="1"/>
  <!-- Taillight -->
  <rect x="64" y="58" width="4" height="4" fill="#d04040" rx="1"/>
  <!-- Door line -->
  <line x1="40" y1="58" x2="40" y2="68" stroke="#6a1818" stroke-width="0.5"/>
  <!-- Wheels -->
  <circle cx="22" cy="70" r="4" fill="#202020"/>
  <circle cx="22" cy="70" r="2" fill="#606060"/>
  <circle cx="58" cy="70" r="4" fill="#202020"/>
  <circle cx="58" cy="70" r="2" fill="#606060"/>
</svg>
