<svg preserveAspectRatio="none" xmlns="http://www.w3.org/2000/svg" viewBox="0 0 80 80" width="80" height="80">
  <!-- Back wall - concrete garage -->
  <rect x="0" y="0" width="80" height="72" fill="#7a7a76"/>

  <!-- Concrete panel seams -->
  <rect x="0" y="32" width="80" height="1" fill="#585854"/>
  <rect x="40" y="0" width="1" height="32" fill="#585854"/>

  <!-- Baseboard -->
  <rect x="0" y="72" width="80" height="4" fill="#484844"/>

  <!-- Floor - asphalt -->
  <rect x="0" y="76" width="80" height="4" fill="#484844"/>
  <!-- Parking space division stripes (single space, stripes at both edges) -->
  <rect x="2" y="76" width="2" height="4" fill="#d8c040"/>
  <rect x="76" y="76" width="2" height="4" fill="#d8c040"/>

  <!-- Ceiling fluorescent -->
  <rect x="20" y="0" width="40" height="3" fill="#c8c8b8"/>
  <rect x="24" y="3" width="32" height="2" fill="#a8a8a0"/>

  <!-- Support pillars (left and right edges) -->
  <rect x="4" y="6" width="4" height="60" fill="#8a8a86"/>
  <rect x="4" y="6" width="4" height="2" fill="#6a6a66"/>
  <rect x="4" y="64" width="4" height="2" fill="#6a6a66"/>
  <rect x="72" y="6" width="4" height="60" fill="#8a8a86"/>
  <rect x="72" y="6" width="4" height="2" fill="#6a6a66"/>
  <rect x="72" y="64" width="4" height="2" fill="#6a6a66"/>

  <!-- "P" sign on wall -->
  <rect x="14" y="10" width="14" height="14" fill="#2a5090" rx="1"/>
  <rect x="18" y="14" width="4" height="6" fill="#f0f0e8"/>
  <rect x="18" y="14" width="6" height="2" fill="#f0f0e8"/>
  <rect x="22" y="16" width="2" height="2" fill="#f0f0e8"/>

  <!-- Wall arrow sign -->
  <rect x="52" y="12" width="16" height="8" fill="#d8c040" rx="1"/>
  <path d="M 56 16 L 62 16 L 62 14 L 66 17 L 62 20 L 62 18 L 56 18 Z" fill="#202020"/>

  <!-- Painted space number on back wall -->
  <rect x="38" y="40" width="2" height="10" fill="#e0e0d0"/>
  <rect x="42" y="40" width="4" height="10" fill="#e0e0d0"/>
  <rect x="42" y="40" width="4" height="2" fill="#e0e0d0"/>
  <rect x="42" y="44" width="4" height="2" fill="#e0e0d0"/>
  <rect x="42" y="48" width="4" height="2" fill="#e0e0d0"/>

  <!-- Red X overlay - "no access" -->
  <line x1="6" y1="6" x2="74" y2="74" stroke="#d01818" stroke-width="8" stroke-linecap="round"/>
  <line x1="74" y1="6" x2="6" y2="74" stroke="#d01818" stroke-width="8" stroke-linecap="round"/>
</svg>
