<svg preserveAspectRatio="none" xmlns="http://www.w3.org/2000/svg" viewBox="0 0 540 160" width="540" height="160">
  <!-- Back wall - rich purple party hall -->
  <rect x="0" y="0" width="540" height="156" fill="#3a1a4a"/>

  <!-- Upper wall gradient (lighter near ceiling) -->
  <rect x="0" y="0" width="540" height="40" fill="#4a2060"/>

  <!-- Crown molding near ceiling -->
  <rect x="0" y="38" width="540" height="2" fill="#6a3080"/>

  <!-- Wainscoting trim (ground-floor chair rail) -->
  <rect x="0" y="128" width="540" height="3" fill="#6a3080"/>

  <!-- Baseboard -->
  <rect x="0" y="152" width="540" height="4" fill="#201028"/>

  <!-- Dance floor -->
  <rect x="0" y="156" width="540" height="4" fill="#484058"/>
  <rect x="40" y="156" width="20" height="4" fill="#d0a848"/>
  <rect x="100" y="156" width="20" height="4" fill="#d0a848"/>
  <rect x="160" y="156" width="20" height="4" fill="#d0a848"/>
  <rect x="220" y="156" width="20" height="4" fill="#d0a848"/>
  <rect x="280" y="156" width="20" height="4" fill="#d0a848"/>
  <rect x="340" y="156" width="20" height="4" fill="#d0a848"/>
  <rect x="400" y="156" width="20" height="4" fill="#d0a848"/>
  <rect x="460" y="156" width="20" height="4" fill="#d0a848"/>

  <!-- Disco ball center (hanging from high ceiling) -->
  <circle cx="270" cy="60" r="14" fill="#c8c8d0"/>
  <circle cx="270" cy="60" r="14" fill="url(#discoShine)" opacity="0.6"/>
  <!-- Disco facets -->
  <rect x="262" y="50" width="4" height="4" fill="#f0f0f8"/>
  <rect x="270" y="52" width="4" height="4" fill="#a0a0b0"/>
  <rect x="266" y="58" width="4" height="4" fill="#d0d0d8"/>
  <rect x="274" y="62" width="4" height="4" fill="#a0a0b0"/>
  <rect x="260" y="64" width="4" height="4" fill="#d0d0d8"/>
  <rect x="270" y="66" width="4" height="4" fill="#f0f0f8"/>
  <!-- Suspension rod -->
  <rect x="269" y="0" width="2" height="46" fill="#888898"/>

  <!-- Light beams reach down to dance floor -->
  <path d="M 270 74 L 210 156 L 230 156 Z" fill="#f0e080" opacity="0.2"/>
  <path d="M 270 74 L 330 156 L 310 156 Z" fill="#f0e080" opacity="0.2"/>
  <path d="M 270 74 L 150 156 L 178 156 Z" fill="#c088e0" opacity="0.15"/>
  <path d="M 270 74 L 390 156 L 362 156 Z" fill="#88c0e0" opacity="0.15"/>

  <!-- Upper-wall tall speakers -->
  <rect x="12" y="48" width="16" height="44" fill="#202030" rx="1"/>
  <circle cx="20" cy="58" r="4" fill="#404050"/>
  <circle cx="20" cy="58" r="2" fill="#202030"/>
  <circle cx="20" cy="70" r="3.5" fill="#404050"/>
  <circle cx="20" cy="70" r="1.8" fill="#202030"/>
  <circle cx="20" cy="82" r="3" fill="#404050"/>
  <circle cx="20" cy="82" r="1.5" fill="#202030"/>

  <rect x="512" y="48" width="16" height="44" fill="#202030" rx="1"/>
  <circle cx="520" cy="58" r="4" fill="#404050"/>
  <circle cx="520" cy="58" r="2" fill="#202030"/>
  <circle cx="520" cy="70" r="3.5" fill="#404050"/>
  <circle cx="520" cy="70" r="1.8" fill="#202030"/>
  <circle cx="520" cy="82" r="3" fill="#404050"/>
  <circle cx="520" cy="82" r="1.5" fill="#202030"/>

  <!-- Spotlights on ceiling -->
  <rect x="58" y="0" width="4" height="10" fill="#707080"/>
  <circle cx="60" cy="12" r="4" fill="#f0c048"/>
  <rect x="478" y="0" width="4" height="10" fill="#707080"/>
  <circle cx="480" cy="12" r="4" fill="#f0c048"/>
  <rect x="148" y="0" width="4" height="8" fill="#707080"/>
  <circle cx="150" cy="10" r="3" fill="#e08048"/>
  <rect x="388" y="0" width="4" height="8" fill="#707080"/>
  <circle cx="390" cy="10" r="3" fill="#e08048"/>

  <!-- Color-wash moving heads on upper wall -->
  <rect x="98" y="44" width="6" height="4" fill="#3a1a4a"/>
  <path d="M 95 48 L 107 48 L 104 56 L 98 56 Z" fill="#6a3080"/>
  <circle cx="101" cy="52" r="2" fill="#e06060"/>

  <rect x="436" y="44" width="6" height="4" fill="#3a1a4a"/>
  <path d="M 433 48 L 445 48 L 442 56 L 436 56 Z" fill="#6a3080"/>
  <circle cx="439" cy="52" r="2" fill="#60a0e0"/>

  <!-- Wall sconces at mid-height -->
  <path d="M 72 104 L 80 104 L 76 114 Z" fill="#e0c868"/>
  <circle cx="76" cy="107" r="2" fill="#ffe098"/>
  <path d="M 460 104 L 468 104 L 464 114 Z" fill="#e0c868"/>
  <circle cx="464" cy="107" r="2" fill="#ffe098"/>

  <!-- DJ booth / bar (left side) -->
  <rect x="40" y="130" width="70" height="6" fill="#8a5a30" rx="1"/>
  <rect x="40" y="136" width="70" height="16" fill="#5a3418"/>
  <rect x="42" y="138" width="66" height="12" fill="#6a3a20" rx="1"/>
  <!-- Turntable -->
  <rect x="50" y="124" width="18" height="6" fill="#202020" rx="1"/>
  <circle cx="59" cy="127" r="2" fill="#404040"/>
  <rect x="76" y="124" width="18" height="6" fill="#202020" rx="1"/>
  <circle cx="85" cy="127" r="2" fill="#404040"/>
  <!-- Mixer between turntables -->
  <rect x="69" y="124" width="6" height="6" fill="#303038"/>
  <rect x="70" y="125" width="1" height="1" fill="#d04040"/>
  <rect x="72" y="125" width="1" height="1" fill="#40c040"/>
  <rect x="70" y="127" width="4" height="1" fill="#888"/>

  <!-- Dancing figures -->
  <!-- Dancer 1 -->
  <circle cx="130" cy="124" r="3" fill="#e8c8a0"/>
  <rect x="127" y="127" width="6" height="10" fill="#c04080"/>
  <rect x="127" y="137" width="2" height="10" fill="#3a2020"/>
  <rect x="131" y="137" width="2" height="10" fill="#3a2020"/>
  <rect x="124" y="128" width="3" height="7" fill="#c04080"/>
  <rect x="133" y="126" width="3" height="8" fill="#c04080"/>

  <!-- Dancer 2 -->
  <circle cx="160" cy="126" r="3" fill="#c89878"/>
  <rect x="157" y="129" width="6" height="10" fill="#4080c0"/>
  <rect x="157" y="139" width="2" height="10" fill="#202040"/>
  <rect x="161" y="139" width="2" height="10" fill="#202040"/>
  <rect x="154" y="130" width="3" height="7" fill="#4080c0"/>
  <rect x="163" y="128" width="3" height="8" fill="#4080c0"/>

  <!-- Dancer 3 -->
  <circle cx="192" cy="124" r="3" fill="#e8c8a0"/>
  <rect x="189" y="127" width="6" height="10" fill="#d0a030"/>
  <rect x="189" y="137" width="2" height="10" fill="#3a2820"/>
  <rect x="193" y="137" width="2" height="10" fill="#3a2820"/>
  <rect x="186" y="126" width="3" height="8" fill="#d0a030"/>
  <rect x="195" y="128" width="3" height="7" fill="#d0a030"/>

  <!-- Dancer 4 (arm up) -->
  <circle cx="220" cy="124" r="3" fill="#c89878"/>
  <rect x="217" y="127" width="6" height="10" fill="#60a060"/>
  <rect x="217" y="137" width="2" height="10" fill="#2a3020"/>
  <rect x="221" y="137" width="2" height="10" fill="#2a3020"/>
  <rect x="214" y="128" width="3" height="7" fill="#60a060"/>
  <rect x="223" y="120" width="3" height="12" fill="#60a060"/>

  <!-- Dancer 5 -->
  <circle cx="250" cy="124" r="3" fill="#e8c8a0"/>
  <rect x="247" y="127" width="6" height="10" fill="#8040a0"/>
  <rect x="247" y="137" width="2" height="10" fill="#201028"/>
  <rect x="251" y="137" width="2" height="10" fill="#201028"/>
  <rect x="244" y="120" width="3" height="12" fill="#8040a0"/>
  <rect x="253" y="128" width="3" height="7" fill="#8040a0"/>

  <!-- Dancer 6 -->
  <circle cx="292" cy="126" r="3" fill="#b08068"/>
  <rect x="289" y="129" width="6" height="10" fill="#d03050"/>
  <rect x="289" y="139" width="2" height="10" fill="#2a1818"/>
  <rect x="293" y="139" width="2" height="10" fill="#2a1818"/>
  <rect x="286" y="130" width="3" height="7" fill="#d03050"/>
  <rect x="295" y="130" width="3" height="7" fill="#d03050"/>

  <!-- Dancer 7 -->
  <circle cx="322" cy="124" r="3" fill="#d0a888"/>
  <rect x="319" y="127" width="6" height="10" fill="#4060a0"/>
  <rect x="319" y="137" width="2" height="10" fill="#1a2030"/>
  <rect x="323" y="137" width="2" height="10" fill="#1a2030"/>
  <rect x="316" y="126" width="3" height="8" fill="#4060a0"/>
  <rect x="325" y="128" width="3" height="7" fill="#4060a0"/>

  <!-- Dancer 8 -->
  <circle cx="352" cy="126" r="3" fill="#e0c09a"/>
  <rect x="349" y="129" width="6" height="10" fill="#c0a030"/>
  <rect x="349" y="139" width="2" height="10" fill="#3a2a18"/>
  <rect x="353" y="139" width="2" height="10" fill="#3a2a18"/>
  <rect x="355" y="120" width="3" height="12" fill="#c0a030"/>
  <rect x="346" y="130" width="3" height="7" fill="#c0a030"/>

  <!-- Dancer 9 -->
  <circle cx="384" cy="124" r="3" fill="#a87858"/>
  <rect x="381" y="127" width="6" height="10" fill="#3068a8"/>
  <rect x="381" y="137" width="2" height="10" fill="#18202a"/>
  <rect x="385" y="137" width="2" height="10" fill="#18202a"/>
  <rect x="378" y="128" width="3" height="7" fill="#3068a8"/>
  <rect x="387" y="126" width="3" height="8" fill="#3068a8"/>

  <!-- Dancer 10 (arm up) -->
  <circle cx="414" cy="126" r="3" fill="#d8b090"/>
  <rect x="411" y="129" width="6" height="10" fill="#a04060"/>
  <rect x="411" y="139" width="2" height="10" fill="#2a1820"/>
  <rect x="415" y="139" width="2" height="10" fill="#2a1820"/>
  <rect x="417" y="122" width="3" height="12" fill="#a04060"/>
  <rect x="408" y="130" width="3" height="7" fill="#a04060"/>

  <!-- Bar counter (right side) -->
  <rect x="440" y="130" width="60" height="6" fill="#8a5a30" rx="1"/>
  <rect x="440" y="136" width="60" height="16" fill="#5a3418"/>
  <rect x="442" y="138" width="56" height="12" fill="#6a3a20" rx="1"/>
  <!-- Bottles behind bar -->
  <rect x="446" y="116" width="3" height="14" fill="#a86040"/>
  <rect x="451" y="116" width="3" height="14" fill="#406860"/>
  <rect x="456" y="116" width="3" height="14" fill="#804060"/>
  <rect x="461" y="116" width="3" height="14" fill="#206080"/>
  <rect x="466" y="116" width="3" height="14" fill="#a86040"/>
  <rect x="471" y="116" width="3" height="14" fill="#406860"/>
  <!-- Cocktail glasses on bar -->
  <path d="M 480 126 L 488 126 L 485 132 L 483 132 Z" fill="#e0a0c0" opacity="0.85"/>
  <rect x="483" y="132" width="2" height="4" fill="#e0a0c0"/>
  <path d="M 490 126 L 498 126 L 495 132 L 493 132 Z" fill="#a0c0e0" opacity="0.85"/>
  <rect x="493" y="132" width="2" height="4" fill="#a0c0e0"/>
</svg>
