<svg preserveAspectRatio="none" xmlns="http://www.w3.org/2000/svg" viewBox="0 0 480 80" width="480" height="80">
  <!-- Back wall - warm burgundy / upscale dining -->
  <rect x="0" y="0" width="480" height="76" fill="#6a2838"/>

  <!-- Wainscoting band -->
  <rect x="0" y="50" width="480" height="6" fill="#4a1828"/>
  <rect x="0" y="56" width="480" height="16" fill="#3a1220"/>

  <!-- Baseboard -->
  <rect x="0" y="72" width="480" height="4" fill="#2a0a18"/>

  <!-- Floor - dark parquet -->
  <rect x="0" y="76" width="480" height="4" fill="#5a3820"/>

  <!-- Chandeliers -->
  <g>
    <rect x="79" y="0" width="2" height="6" fill="#a08030"/>
    <circle cx="80" cy="10" r="6" fill="#c8a050"/>
    <circle cx="80" cy="10" r="4" fill="#f0d878"/>
    <rect x="74" y="10" width="12" height="2" fill="#a08030"/>
    <circle cx="74" cy="13" r="1.5" fill="#ffe898"/>
    <circle cx="86" cy="13" r="1.5" fill="#ffe898"/>
    <circle cx="80" cy="15" r="1.5" fill="#ffe898"/>
  </g>
  <g>
    <rect x="239" y="0" width="2" height="6" fill="#a08030"/>
    <circle cx="240" cy="10" r="6" fill="#c8a050"/>
    <circle cx="240" cy="10" r="4" fill="#f0d878"/>
    <rect x="234" y="10" width="12" height="2" fill="#a08030"/>
    <circle cx="234" cy="13" r="1.5" fill="#ffe898"/>
    <circle cx="246" cy="13" r="1.5" fill="#ffe898"/>
    <circle cx="240" cy="15" r="1.5" fill="#ffe898"/>
  </g>
  <g>
    <rect x="399" y="0" width="2" height="6" fill="#a08030"/>
    <circle cx="400" cy="10" r="6" fill="#c8a050"/>
    <circle cx="400" cy="10" r="4" fill="#f0d878"/>
    <rect x="394" y="10" width="12" height="2" fill="#a08030"/>
    <circle cx="394" cy="13" r="1.5" fill="#ffe898"/>
    <circle cx="406" cy="13" r="1.5" fill="#ffe898"/>
    <circle cx="400" cy="15" r="1.5" fill="#ffe898"/>
  </g>

  <!-- Framed painting (left) -->
  <rect x="20" y="14" width="34" height="22" fill="#d0a050" rx="1"/>
  <rect x="22" y="16" width="30" height="18" fill="#2a4050"/>
  <rect x="26" y="24" width="6" height="6" fill="#6080a0"/>
  <rect x="34" y="20" width="8" height="10" fill="#8aa0b8"/>
  <rect x="44" y="26" width="6" height="4" fill="#607888"/>

  <!-- Mirror (center) -->
  <rect x="160" y="14" width="40" height="26" fill="#8a6030" rx="1"/>
  <rect x="162" y="16" width="36" height="22" fill="#c8d4d8" rx="1"/>
  <rect x="166" y="18" width="14" height="8" fill="#d8e0e4" opacity="0.6"/>
  <rect x="182" y="22" width="12" height="10" fill="#d8e0e4" opacity="0.5"/>

  <!-- Framed painting (right) -->
  <rect x="320" y="14" width="34" height="22" fill="#d0a050" rx="1"/>
  <rect x="322" y="16" width="30" height="18" fill="#3a2838"/>
  <circle cx="332" cy="24" r="3" fill="#d0a058"/>
  <rect x="340" y="22" width="8" height="10" fill="#884838"/>

  <!-- Wine rack (far right on wall) -->
  <rect x="440" y="14" width="30" height="30" fill="#3a2010" rx="1"/>
  <rect x="442" y="16" width="26" height="2" fill="#5a3020"/>
  <rect x="442" y="22" width="26" height="2" fill="#5a3020"/>
  <rect x="442" y="28" width="26" height="2" fill="#5a3020"/>
  <rect x="442" y="34" width="26" height="2" fill="#5a3020"/>
  <!-- Bottles -->
  <rect x="444" y="18" width="3" height="4" fill="#202838"/>
  <rect x="449" y="18" width="3" height="4" fill="#603020"/>
  <rect x="454" y="18" width="3" height="4" fill="#202838"/>
  <rect x="459" y="18" width="3" height="4" fill="#603020"/>
  <rect x="464" y="18" width="3" height="4" fill="#202838"/>
  <rect x="444" y="24" width="3" height="4" fill="#603020"/>
  <rect x="449" y="24" width="3" height="4" fill="#202838"/>
  <rect x="454" y="24" width="3" height="4" fill="#603020"/>
  <rect x="459" y="24" width="3" height="4" fill="#202838"/>
  <rect x="464" y="24" width="3" height="4" fill="#603020"/>
  <rect x="444" y="30" width="3" height="4" fill="#202838"/>
  <rect x="449" y="30" width="3" height="4" fill="#603020"/>
  <rect x="454" y="30" width="3" height="4" fill="#202838"/>
  <rect x="459" y="30" width="3" height="4" fill="#603020"/>
  <rect x="464" y="30" width="3" height="4" fill="#202838"/>

  <!-- Dining table 1 (left) -->
  <rect x="28" y="58" width="60" height="3" fill="#f8f0e0"/>
  <rect x="28" y="61" width="60" height="3" fill="#e0c8a0"/>
  <rect x="54" y="64" width="4" height="10" fill="#4a2818"/>
  <rect x="40" y="72" width="32" height="2" fill="#4a2818"/>
  <!-- Plate and glass on table -->
  <ellipse cx="44" cy="58" rx="6" ry="1.5" fill="#f0e0d0"/>
  <circle cx="44" cy="57" r="3" fill="#d8b888"/>
  <rect x="60" y="52" width="3" height="6" fill="#d0e0e8" opacity="0.7"/>
  <rect x="60" y="52" width="3" height="2" fill="#8030a0"/>
  <rect x="72" y="54" width="4" height="4" fill="#f0d0a0"/>
  <rect x="73" y="52" width="2" height="3" fill="#d04040"/>
  <!-- Chair 1 -->
  <rect x="28" y="58" width="4" height="14" fill="#3a1828"/>
  <rect x="20" y="60" width="4" height="12" fill="#5a2838" rx="1"/>
  <rect x="20" y="56" width="4" height="6" fill="#4a1828"/>
  <!-- Chair 2 -->
  <rect x="88" y="58" width="4" height="14" fill="#3a1828"/>
  <rect x="92" y="60" width="4" height="12" fill="#5a2838" rx="1"/>
  <rect x="92" y="56" width="4" height="6" fill="#4a1828"/>

  <!-- Dining table 2 -->
  <rect x="120" y="58" width="60" height="3" fill="#f8f0e0"/>
  <rect x="120" y="61" width="60" height="3" fill="#e0c8a0"/>
  <rect x="146" y="64" width="4" height="10" fill="#4a2818"/>
  <rect x="132" y="72" width="32" height="2" fill="#4a2818"/>
  <!-- Candle -->
  <rect x="148" y="52" width="2" height="6" fill="#f0e8d0"/>
  <rect x="148" y="48" width="2" height="4" fill="#f0c040"/>
  <circle cx="149" cy="47" r="1.5" fill="#ffe8a0"/>
  <!-- Wine glasses -->
  <rect x="134" y="52" width="3" height="6" fill="#d0e0e8" opacity="0.8"/>
  <rect x="134" y="52" width="3" height="3" fill="#6a1828"/>
  <rect x="162" y="52" width="3" height="6" fill="#d0e0e8" opacity="0.8"/>
  <rect x="162" y="52" width="3" height="3" fill="#6a1828"/>
  <!-- Plates -->
  <ellipse cx="130" cy="58" rx="5" ry="1.2" fill="#f0e0d0"/>
  <circle cx="130" cy="57" r="2.5" fill="#c08860"/>
  <ellipse cx="170" cy="58" rx="5" ry="1.2" fill="#f0e0d0"/>
  <circle cx="170" cy="57" r="2.5" fill="#c08860"/>
  <!-- Chairs -->
  <rect x="120" y="58" width="4" height="14" fill="#3a1828"/>
  <rect x="112" y="60" width="4" height="12" fill="#5a2838" rx="1"/>
  <rect x="112" y="56" width="4" height="6" fill="#4a1828"/>
  <rect x="180" y="58" width="4" height="14" fill="#3a1828"/>
  <rect x="184" y="60" width="4" height="12" fill="#5a2838" rx="1"/>
  <rect x="184" y="56" width="4" height="6" fill="#4a1828"/>

  <!-- Dining table 3 -->
  <rect x="212" y="58" width="60" height="3" fill="#f8f0e0"/>
  <rect x="212" y="61" width="60" height="3" fill="#e0c8a0"/>
  <rect x="238" y="64" width="4" height="10" fill="#4a2818"/>
  <rect x="224" y="72" width="32" height="2" fill="#4a2818"/>
  <ellipse cx="228" cy="58" rx="6" ry="1.5" fill="#f0e0d0"/>
  <circle cx="228" cy="57" r="3" fill="#8a4830"/>
  <ellipse cx="258" cy="58" rx="6" ry="1.5" fill="#f0e0d0"/>
  <circle cx="258" cy="57" r="3" fill="#8a4830"/>
  <rect x="243" y="52" width="3" height="6" fill="#d0e0e8" opacity="0.7"/>
  <rect x="243" y="52" width="3" height="2" fill="#8030a0"/>
  <rect x="212" y="58" width="4" height="14" fill="#3a1828"/>
  <rect x="204" y="60" width="4" height="12" fill="#5a2838" rx="1"/>
  <rect x="204" y="56" width="4" height="6" fill="#4a1828"/>
  <rect x="272" y="58" width="4" height="14" fill="#3a1828"/>
  <rect x="276" y="60" width="4" height="12" fill="#5a2838" rx="1"/>
  <rect x="276" y="56" width="4" height="6" fill="#4a1828"/>

  <!-- Dining table 4 -->
  <rect x="300" y="58" width="60" height="3" fill="#f8f0e0"/>
  <rect x="300" y="61" width="60" height="3" fill="#e0c8a0"/>
  <rect x="326" y="64" width="4" height="10" fill="#4a2818"/>
  <rect x="312" y="72" width="32" height="2" fill="#4a2818"/>
  <rect x="328" y="52" width="2" height="6" fill="#f0e8d0"/>
  <rect x="328" y="48" width="2" height="4" fill="#f0c040"/>
  <circle cx="329" cy="47" r="1.5" fill="#ffe8a0"/>
  <ellipse cx="314" cy="58" rx="5" ry="1.2" fill="#f0e0d0"/>
  <circle cx="314" cy="57" r="2.5" fill="#c08860"/>
  <ellipse cx="346" cy="58" rx="5" ry="1.2" fill="#f0e0d0"/>
  <circle cx="346" cy="57" r="2.5" fill="#c08860"/>
  <rect x="300" y="58" width="4" height="14" fill="#3a1828"/>
  <rect x="292" y="60" width="4" height="12" fill="#5a2838" rx="1"/>
  <rect x="292" y="56" width="4" height="6" fill="#4a1828"/>
  <rect x="360" y="58" width="4" height="14" fill="#3a1828"/>
  <rect x="364" y="60" width="4" height="12" fill="#5a2838" rx="1"/>
  <rect x="364" y="56" width="4" height="6" fill="#4a1828"/>

  <!-- Host station / bar (right) -->
  <rect x="380" y="54" width="52" height="4" fill="#6a3820"/>
  <rect x="380" y="58" width="52" height="14" fill="#4a2410"/>
  <rect x="382" y="60" width="48" height="8" fill="#5a2e18" rx="1"/>
  <!-- Small lamp on host station -->
  <rect x="390" y="46" width="2" height="8" fill="#8a6030"/>
  <rect x="386" y="40" width="10" height="6" fill="#e8c070" rx="2"/>
  <!-- Menu on stand -->
  <rect x="414" y="44" width="10" height="12" fill="#f0e0c0" rx="1"/>
  <rect x="415" y="45" width="8" height="1" fill="#6a2838"/>
  <rect x="415" y="47" width="6" height="1" fill="#6a2838"/>
  <rect x="415" y="49" width="7" height="1" fill="#6a2838"/>
  <rect x="415" y="51" width="5" height="1" fill="#6a2838"/>
</svg>
