<svg preserveAspectRatio="none" xmlns="http://www.w3.org/2000/svg" viewBox="0 0 480 80" width="480" height="80">
  <!-- Italian trattoria - warm terracotta & cream -->
  <!-- Back wall - cream stucco -->
  <rect x="0" y="0" width="480" height="50" fill="#e8d4a8"/>

  <!-- Terracotta wainscoting -->
  <rect x="0" y="50" width="480" height="6" fill="#b86838"/>
  <rect x="0" y="56" width="480" height="16" fill="#904828"/>

  <!-- Baseboard -->
  <rect x="0" y="72" width="480" height="4" fill="#5a2818"/>

  <!-- Floor - green-gray stone tile -->
  <rect x="0" y="76" width="480" height="4" fill="#6f8a76"/>

  <!-- Exposed wooden ceiling beams -->
  <rect x="0" y="0" width="480" height="5" fill="#5a3820"/>
  <rect x="40" y="5" width="8" height="18" fill="#6a4028"/>
  <rect x="160" y="5" width="8" height="18" fill="#6a4028"/>
  <rect x="280" y="5" width="8" height="18" fill="#6a4028"/>
  <rect x="400" y="5" width="8" height="18" fill="#6a4028"/>

  <!-- Hanging Chianti bottles / garlic braids -->
  <g>
    <rect x="99" y="5" width="2" height="8" fill="#4a2818"/>
    <rect x="96" y="13" width="8" height="14" fill="#4a6028"/>
    <rect x="96" y="22" width="8" height="5" fill="#c0a070"/>
    <rect x="98" y="11" width="4" height="3" fill="#2a1808"/>
  </g>
  <g>
    <rect x="219" y="5" width="2" height="8" fill="#4a2818"/>
    <ellipse cx="220" cy="18" rx="6" ry="4" fill="#f0e0a0"/>
    <ellipse cx="220" cy="22" rx="6" ry="4" fill="#f0e0a0"/>
    <ellipse cx="220" cy="26" rx="5" ry="3" fill="#f0e0a0"/>
    <rect x="218" y="10" width="4" height="4" fill="#a8c058"/>
  </g>
  <g>
    <rect x="339" y="5" width="2" height="8" fill="#4a2818"/>
    <rect x="336" y="13" width="8" height="14" fill="#4a6028"/>
    <rect x="336" y="22" width="8" height="5" fill="#c0a070"/>
    <rect x="338" y="11" width="4" height="3" fill="#2a1808"/>
  </g>

  <!-- Italian flag painting (left) -->
  <rect x="20" y="16" width="36" height="24" fill="#6a3820" rx="1"/>
  <rect x="22" y="18" width="10" height="20" fill="#2a8040"/>
  <rect x="32" y="18" width="12" height="20" fill="#f0e8d0"/>
  <rect x="44" y="18" width="10" height="20" fill="#c83828"/>

  <!-- Tuscany landscape painting -->
  <rect x="248" y="16" width="44" height="24" fill="#6a3820" rx="1"/>
  <rect x="250" y="18" width="40" height="12" fill="#88b8d8"/>
  <rect x="250" y="28" width="40" height="12" fill="#a8a058"/>
  <polygon points="258,28 264,22 270,28" fill="#6a8038"/>
  <polygon points="272,28 280,20 288,28" fill="#6a8038"/>
  <rect x="276" y="26" width="3" height="6" fill="#2a4020"/>

  <!-- Framed family photo -->
  <rect x="380" y="18" width="30" height="22" fill="#6a3820" rx="1"/>
  <rect x="382" y="20" width="26" height="18" fill="#c8a070"/>
  <circle cx="390" cy="28" r="3" fill="#e8c8a0"/>
  <circle cx="400" cy="28" r="3" fill="#e8c8a0"/>
  <rect x="386" y="30" width="8" height="8" fill="#6a3020"/>
  <rect x="396" y="30" width="8" height="8" fill="#4a2040"/>

  <!-- Wooden beam sign "Trattoria" -->
  <rect x="100" y="20" width="80" height="12" fill="#6a3820" rx="1"/>
  <rect x="102" y="22" width="76" height="8" fill="#4a2818"/>
  <rect x="108" y="24" width="4" height="4" fill="#e8c860"/>
  <rect x="116" y="24" width="6" height="4" fill="#e8c860"/>
  <rect x="126" y="24" width="4" height="4" fill="#e8c860"/>
  <rect x="134" y="24" width="4" height="4" fill="#e8c860"/>
  <rect x="142" y="24" width="6" height="4" fill="#e8c860"/>
  <rect x="152" y="24" width="4" height="4" fill="#e8c860"/>
  <rect x="160" y="24" width="4" height="4" fill="#e8c860"/>
  <rect x="168" y="24" width="6" height="4" fill="#e8c860"/>

  <!-- Dining table 1 - red checkered cloth -->
  <rect x="28" y="58" width="60" height="3" fill="#d83030"/>
  <rect x="28" y="58" width="6" height="3" fill="#f0f0e8"/>
  <rect x="40" y="58" width="6" height="3" fill="#f0f0e8"/>
  <rect x="52" y="58" width="6" height="3" fill="#f0f0e8"/>
  <rect x="64" y="58" width="6" height="3" fill="#f0f0e8"/>
  <rect x="76" y="58" width="6" height="3" fill="#f0f0e8"/>
  <rect x="28" y="61" width="60" height="3" fill="#a82020"/>
  <rect x="54" y="64" width="4" height="10" fill="#4a2818"/>
  <rect x="40" y="72" width="32" height="2" fill="#4a2818"/>
  <!-- Chianti bottle on table -->
  <rect x="56" y="50" width="4" height="8" fill="#2a4020"/>
  <rect x="55" y="48" width="6" height="3" fill="#c8a070"/>
  <!-- Pasta plates -->
  <ellipse cx="40" cy="58" rx="6" ry="1.5" fill="#f0f0e8"/>
  <circle cx="40" cy="57" r="3" fill="#e8c040"/>
  <rect x="39" y="56" width="2" height="2" fill="#c03020"/>
  <ellipse cx="76" cy="58" rx="6" ry="1.5" fill="#f0f0e8"/>
  <circle cx="76" cy="57" r="3" fill="#e8c040"/>
  <rect x="75" y="56" width="2" height="2" fill="#c03020"/>
  <!-- Chairs - wooden -->
  <rect x="28" y="58" width="4" height="14" fill="#4a2818"/>
  <rect x="20" y="60" width="4" height="12" fill="#6a3820" rx="1"/>
  <rect x="20" y="56" width="4" height="6" fill="#5a2818"/>
  <rect x="88" y="58" width="4" height="14" fill="#4a2818"/>
  <rect x="92" y="60" width="4" height="12" fill="#6a3820" rx="1"/>
  <rect x="92" y="56" width="4" height="6" fill="#5a2818"/>

  <!-- Dining table 2 -->
  <rect x="120" y="58" width="60" height="3" fill="#d83030"/>
  <rect x="120" y="58" width="6" height="3" fill="#f0f0e8"/>
  <rect x="132" y="58" width="6" height="3" fill="#f0f0e8"/>
  <rect x="144" y="58" width="6" height="3" fill="#f0f0e8"/>
  <rect x="156" y="58" width="6" height="3" fill="#f0f0e8"/>
  <rect x="168" y="58" width="6" height="3" fill="#f0f0e8"/>
  <rect x="120" y="61" width="60" height="3" fill="#a82020"/>
  <rect x="146" y="64" width="4" height="10" fill="#4a2818"/>
  <rect x="132" y="72" width="32" height="2" fill="#4a2818"/>
  <!-- Candle in Chianti bottle -->
  <rect x="148" y="48" width="4" height="10" fill="#2a4020"/>
  <rect x="149" y="44" width="2" height="4" fill="#f0e8d0"/>
  <rect x="149" y="40" width="2" height="4" fill="#f0c040"/>
  <circle cx="150" cy="39" r="1.5" fill="#ffe8a0"/>
  <!-- Wine glasses -->
  <rect x="132" y="52" width="3" height="6" fill="#d0e0e8" opacity="0.8"/>
  <rect x="132" y="52" width="3" height="3" fill="#8a1028"/>
  <rect x="164" y="52" width="3" height="6" fill="#d0e0e8" opacity="0.8"/>
  <rect x="164" y="52" width="3" height="3" fill="#8a1028"/>
  <!-- Pizza -->
  <circle cx="140" cy="57" r="5" fill="#e8b060"/>
  <circle cx="138" cy="56" r="1" fill="#c83028"/>
  <circle cx="142" cy="58" r="1" fill="#c83028"/>
  <circle cx="140" cy="57" r="1" fill="#f0e8a0"/>
  <rect x="120" y="58" width="4" height="14" fill="#4a2818"/>
  <rect x="112" y="60" width="4" height="12" fill="#6a3820" rx="1"/>
  <rect x="112" y="56" width="4" height="6" fill="#5a2818"/>
  <rect x="180" y="58" width="4" height="14" fill="#4a2818"/>
  <rect x="184" y="60" width="4" height="12" fill="#6a3820" rx="1"/>
  <rect x="184" y="56" width="4" height="6" fill="#5a2818"/>

  <!-- Dining table 3 -->
  <rect x="212" y="58" width="60" height="3" fill="#d83030"/>
  <rect x="212" y="58" width="6" height="3" fill="#f0f0e8"/>
  <rect x="224" y="58" width="6" height="3" fill="#f0f0e8"/>
  <rect x="236" y="58" width="6" height="3" fill="#f0f0e8"/>
  <rect x="248" y="58" width="6" height="3" fill="#f0f0e8"/>
  <rect x="260" y="58" width="6" height="3" fill="#f0f0e8"/>
  <rect x="212" y="61" width="60" height="3" fill="#a82020"/>
  <rect x="238" y="64" width="4" height="10" fill="#4a2818"/>
  <rect x="224" y="72" width="32" height="2" fill="#4a2818"/>
  <!-- Bread basket -->
  <rect x="234" y="54" width="16" height="4" fill="#a87030" rx="1"/>
  <ellipse cx="238" cy="54" rx="3" ry="2" fill="#e8c880"/>
  <ellipse cx="244" cy="54" rx="3" ry="2" fill="#e8c880"/>
  <ellipse cx="250" cy="54" rx="3" ry="2" fill="#d8a858"/>
  <ellipse cx="224" cy="58" rx="5" ry="1.2" fill="#f0f0e8"/>
  <circle cx="224" cy="57" r="2.5" fill="#c03028"/>
  <ellipse cx="260" cy="58" rx="5" ry="1.2" fill="#f0f0e8"/>
  <circle cx="260" cy="57" r="2.5" fill="#c03028"/>
  <rect x="212" y="58" width="4" height="14" fill="#4a2818"/>
  <rect x="204" y="60" width="4" height="12" fill="#6a3820" rx="1"/>
  <rect x="204" y="56" width="4" height="6" fill="#5a2818"/>
  <rect x="272" y="58" width="4" height="14" fill="#4a2818"/>
  <rect x="276" y="60" width="4" height="12" fill="#6a3820" rx="1"/>
  <rect x="276" y="56" width="4" height="6" fill="#5a2818"/>

  <!-- Dining table 4 -->
  <rect x="300" y="58" width="60" height="3" fill="#d83030"/>
  <rect x="300" y="58" width="6" height="3" fill="#f0f0e8"/>
  <rect x="312" y="58" width="6" height="3" fill="#f0f0e8"/>
  <rect x="324" y="58" width="6" height="3" fill="#f0f0e8"/>
  <rect x="336" y="58" width="6" height="3" fill="#f0f0e8"/>
  <rect x="348" y="58" width="6" height="3" fill="#f0f0e8"/>
  <rect x="300" y="61" width="60" height="3" fill="#a82020"/>
  <rect x="326" y="64" width="4" height="10" fill="#4a2818"/>
  <rect x="312" y="72" width="32" height="2" fill="#4a2818"/>
  <rect x="328" y="48" width="4" height="10" fill="#2a4020"/>
  <rect x="329" y="44" width="2" height="4" fill="#f0e8d0"/>
  <rect x="329" y="40" width="2" height="4" fill="#f0c040"/>
  <circle cx="330" cy="39" r="1.5" fill="#ffe8a0"/>
  <ellipse cx="314" cy="58" rx="5" ry="1.2" fill="#f0f0e8"/>
  <circle cx="314" cy="57" r="2.5" fill="#e8c040"/>
  <ellipse cx="346" cy="58" rx="5" ry="1.2" fill="#f0f0e8"/>
  <circle cx="346" cy="57" r="2.5" fill="#e8c040"/>
  <rect x="300" y="58" width="4" height="14" fill="#4a2818"/>
  <rect x="292" y="60" width="4" height="12" fill="#6a3820" rx="1"/>
  <rect x="292" y="56" width="4" height="6" fill="#5a2818"/>
  <rect x="360" y="58" width="4" height="14" fill="#4a2818"/>
  <rect x="364" y="60" width="4" height="12" fill="#6a3820" rx="1"/>
  <rect x="364" y="56" width="4" height="6" fill="#5a2818"/>

  <!-- Wood-fired pizza oven (right) -->
  <rect x="424" y="44" width="44" height="28" fill="#d8a878"/>
  <rect x="424" y="44" width="44" height="4" fill="#a87050"/>
  <ellipse cx="446" cy="58" rx="14" ry="10" fill="#2a0808"/>
  <ellipse cx="446" cy="60" rx="10" ry="6" fill="#e84020"/>
  <ellipse cx="446" cy="62" rx="6" ry="3" fill="#f8b030"/>
  <rect x="428" y="68" width="36" height="4" fill="#604028"/>
</svg>
