<svg preserveAspectRatio="none" xmlns="http://www.w3.org/2000/svg" viewBox="0 0 480 80" width="480" height="80">
  <!-- Japanese izakaya - dark wood & red accents -->
  <!-- Back wall - warm dark wood -->
  <rect x="0" y="0" width="480" height="50" fill="#2a1a10"/>

  <!-- Shoji screen band -->
  <rect x="0" y="50" width="480" height="22" fill="#e8d8b0"/>
  <rect x="0" y="50" width="480" height="2" fill="#3a2818"/>
  <rect x="0" y="70" width="480" height="2" fill="#3a2818"/>
  <!-- Shoji grid -->
  <rect x="40" y="50" width="1" height="22" fill="#3a2818"/>
  <rect x="80" y="50" width="1" height="22" fill="#3a2818"/>
  <rect x="120" y="50" width="1" height="22" fill="#3a2818"/>
  <rect x="160" y="50" width="1" height="22" fill="#3a2818"/>
  <rect x="200" y="50" width="1" height="22" fill="#3a2818"/>
  <rect x="240" y="50" width="1" height="22" fill="#3a2818"/>
  <rect x="280" y="50" width="1" height="22" fill="#3a2818"/>
  <rect x="320" y="50" width="1" height="22" fill="#3a2818"/>
  <rect x="360" y="50" width="1" height="22" fill="#3a2818"/>
  <rect x="400" y="50" width="1" height="22" fill="#3a2818"/>
  <rect x="440" y="50" width="1" height="22" fill="#3a2818"/>
  <rect x="0" y="60" width="480" height="1" fill="#3a2818"/>

  <!-- Baseboard -->
  <rect x="0" y="72" width="480" height="4" fill="#1a0a08"/>

  <!-- Floor - tatami -->
  <rect x="0" y="76" width="480" height="4" fill="#b89858"/>

  <!-- Horizontal wood slat ceiling -->
  <rect x="0" y="4" width="480" height="1" fill="#4a2818"/>
  <rect x="0" y="8" width="480" height="1" fill="#4a2818"/>

  <!-- Red paper lanterns -->
  <g>
    <rect x="79" y="4" width="2" height="4" fill="#2a1808"/>
    <ellipse cx="80" cy="14" rx="8" ry="8" fill="#c82020"/>
    <rect x="72" y="12" width="16" height="1" fill="#8a1010"/>
    <rect x="72" y="16" width="16" height="1" fill="#8a1010"/>
    <rect x="76" y="20" width="8" height="2" fill="#f8c020"/>
    <text x="80" y="16" font-size="6" fill="#f0e0a0" text-anchor="middle" font-weight="bold">酒</text>
  </g>
  <g>
    <rect x="199" y="4" width="2" height="4" fill="#2a1808"/>
    <ellipse cx="200" cy="14" rx="8" ry="8" fill="#c82020"/>
    <rect x="192" y="12" width="16" height="1" fill="#8a1010"/>
    <rect x="192" y="16" width="16" height="1" fill="#8a1010"/>
    <rect x="196" y="20" width="8" height="2" fill="#f8c020"/>
  </g>
  <g>
    <rect x="319" y="4" width="2" height="4" fill="#2a1808"/>
    <ellipse cx="320" cy="14" rx="8" ry="8" fill="#c82020"/>
    <rect x="312" y="12" width="16" height="1" fill="#8a1010"/>
    <rect x="312" y="16" width="16" height="1" fill="#8a1010"/>
    <rect x="316" y="20" width="8" height="2" fill="#f8c020"/>
    <text x="320" y="16" font-size="6" fill="#f0e0a0" text-anchor="middle" font-weight="bold">寿</text>
  </g>
  <g>
    <rect x="419" y="4" width="2" height="4" fill="#2a1808"/>
    <ellipse cx="420" cy="14" rx="8" ry="8" fill="#c82020"/>
    <rect x="412" y="12" width="16" height="1" fill="#8a1010"/>
    <rect x="412" y="16" width="16" height="1" fill="#8a1010"/>
    <rect x="416" y="20" width="8" height="2" fill="#f8c020"/>
  </g>

  <!-- Noren curtain left (brand) -->
  <rect x="14" y="20" width="44" height="20" fill="#4a1410"/>
  <rect x="14" y="20" width="10" height="20" fill="#4a1410"/>
  <rect x="25" y="20" width="1" height="20" fill="#2a0808"/>
  <rect x="26" y="20" width="10" height="20" fill="#4a1410"/>
  <rect x="37" y="20" width="1" height="20" fill="#2a0808"/>
  <rect x="38" y="20" width="10" height="20" fill="#4a1410"/>
  <rect x="49" y="20" width="1" height="20" fill="#2a0808"/>
  <rect x="50" y="20" width="8" height="20" fill="#4a1410"/>
  <text x="36" y="34" font-size="10" fill="#f0e0a0" text-anchor="middle" font-weight="bold">酒</text>

  <!-- Bamboo wall decoration -->
  <g>
    <rect x="108" y="14" width="3" height="28" fill="#5a7028"/>
    <rect x="108" y="18" width="3" height="1" fill="#304018"/>
    <rect x="108" y="28" width="3" height="1" fill="#304018"/>
    <rect x="108" y="38" width="3" height="1" fill="#304018"/>
    <rect x="114" y="16" width="3" height="26" fill="#6a8038"/>
    <rect x="114" y="22" width="3" height="1" fill="#304018"/>
    <rect x="114" y="32" width="3" height="1" fill="#304018"/>
    <rect x="120" y="14" width="3" height="28" fill="#5a7028"/>
    <rect x="120" y="26" width="3" height="1" fill="#304018"/>
    <rect x="120" y="36" width="3" height="1" fill="#304018"/>
    <!-- Leaves -->
    <ellipse cx="106" cy="14" rx="3" ry="1" fill="#6a8038" transform="rotate(-30 106 14)"/>
    <ellipse cx="124" cy="14" rx="3" ry="1" fill="#6a8038" transform="rotate(30 124 14)"/>
  </g>

  <!-- Sumi-e painting (crane) -->
  <rect x="140" y="18" width="50" height="24" fill="#8a6030"/>
  <rect x="142" y="20" width="46" height="20" fill="#f0e8d0"/>
  <ellipse cx="158" cy="32" rx="4" ry="2" fill="#2a1808"/>
  <rect x="158" y="28" width="1" height="5" fill="#2a1808"/>
  <circle cx="158" cy="28" r="1.5" fill="#2a1808"/>
  <rect x="159" y="27" width="4" height="1" fill="#2a1808"/>
  <rect x="152" y="36" width="14" height="1" fill="#2a1808"/>
  <!-- Sun -->
  <circle cx="180" cy="26" r="4" fill="#c83020"/>

  <!-- Calligraphy scroll -->
  <rect x="230" y="18" width="20" height="28" fill="#d8c090"/>
  <rect x="230" y="16" width="20" height="3" fill="#6a3820"/>
  <rect x="230" y="45" width="20" height="3" fill="#6a3820"/>
  <text x="240" y="28" font-size="8" fill="#1a0a08" text-anchor="middle" font-weight="bold">和</text>
  <text x="240" y="38" font-size="8" fill="#1a0a08" text-anchor="middle" font-weight="bold">食</text>

  <!-- Fish painting -->
  <rect x="270" y="18" width="44" height="24" fill="#6a4028"/>
  <rect x="272" y="20" width="40" height="20" fill="#a8c4d8"/>
  <ellipse cx="288" cy="30" rx="8" ry="3" fill="#e85030"/>
  <polygon points="296,30 302,26 302,34" fill="#e85030"/>
  <circle cx="285" cy="29" r="0.8" fill="#f0f0e8"/>
  <circle cx="285" cy="29" r="0.4" fill="#1a0a08"/>
  <rect x="278" y="34" width="2" height="1" fill="#f0f0e8" opacity="0.6"/>
  <rect x="298" y="22" width="3" height="1" fill="#f0f0e8" opacity="0.4"/>

  <!-- Second noren curtain (right) -->
  <rect x="348" y="20" width="44" height="20" fill="#4a1410"/>
  <rect x="359" y="20" width="1" height="20" fill="#2a0808"/>
  <rect x="371" y="20" width="1" height="20" fill="#2a0808"/>
  <rect x="383" y="20" width="1" height="20" fill="#2a0808"/>
  <text x="370" y="34" font-size="10" fill="#f0e0a0" text-anchor="middle" font-weight="bold">寿司</text>

  <!-- Low tatami tables 1 -->
  <rect x="28" y="60" width="60" height="3" fill="#4a2818"/>
  <rect x="28" y="63" width="60" height="2" fill="#3a1808"/>
  <rect x="54" y="65" width="4" height="7" fill="#2a1808"/>
  <!-- Sushi platter -->
  <rect x="36" y="57" width="20" height="3" fill="#6a2818"/>
  <rect x="38" y="56" width="4" height="2" fill="#f0f0e8"/>
  <rect x="38" y="55" width="4" height="1" fill="#e85030"/>
  <rect x="44" y="56" width="4" height="2" fill="#f0f0e8"/>
  <rect x="44" y="55" width="4" height="1" fill="#c8a040"/>
  <rect x="50" y="56" width="4" height="2" fill="#f0f0e8"/>
  <rect x="50" y="55" width="4" height="1" fill="#c83020"/>
  <!-- Sake set -->
  <rect x="62" y="55" width="6" height="5" fill="#e8e0d0"/>
  <rect x="63" y="53" width="4" height="2" fill="#e8e0d0"/>
  <rect x="72" y="57" width="3" height="3" fill="#e8e0d0"/>
  <rect x="78" y="57" width="3" height="3" fill="#e8e0d0"/>
  <!-- Floor cushions -->
  <rect x="16" y="68" width="10" height="6" fill="#c82020" rx="2"/>
  <rect x="90" y="68" width="10" height="6" fill="#c82020" rx="2"/>

  <!-- Low tatami tables 2 -->
  <rect x="120" y="60" width="60" height="3" fill="#4a2818"/>
  <rect x="120" y="63" width="60" height="2" fill="#3a1808"/>
  <rect x="146" y="65" width="4" height="7" fill="#2a1808"/>
  <!-- Ramen bowls -->
  <ellipse cx="134" cy="58" rx="7" ry="3" fill="#1a0a08"/>
  <ellipse cx="134" cy="57" rx="6" ry="2" fill="#d88840"/>
  <rect x="131" y="56" width="6" height="1" fill="#f0e8a0"/>
  <rect x="133" y="55" width="2" height="2" fill="#f0f0e8"/>
  <ellipse cx="166" cy="58" rx="7" ry="3" fill="#1a0a08"/>
  <ellipse cx="166" cy="57" rx="6" ry="2" fill="#d88840"/>
  <rect x="163" y="56" width="6" height="1" fill="#f0e8a0"/>
  <!-- Chopsticks -->
  <rect x="140" y="57" width="8" height="1" fill="#c8a070" transform="rotate(-10 140 57)"/>
  <rect x="152" y="58" width="8" height="1" fill="#c8a070" transform="rotate(-10 152 58)"/>
  <rect x="108" y="68" width="10" height="6" fill="#c82020" rx="2"/>
  <rect x="182" y="68" width="10" height="6" fill="#c82020" rx="2"/>

  <!-- Low tatami tables 3 -->
  <rect x="212" y="60" width="60" height="3" fill="#4a2818"/>
  <rect x="212" y="63" width="60" height="2" fill="#3a1808"/>
  <rect x="238" y="65" width="4" height="7" fill="#2a1808"/>
  <!-- Tempura plate -->
  <rect x="220" y="56" width="16" height="4" fill="#5a2818" rx="1"/>
  <ellipse cx="224" cy="57" rx="2" ry="1.5" fill="#e8b060"/>
  <ellipse cx="230" cy="57" rx="2" ry="1.5" fill="#e8b060"/>
  <ellipse cx="236" cy="57" rx="2" ry="1.5" fill="#e8b060"/>
  <!-- Tea cups -->
  <rect x="246" y="56" width="4" height="4" fill="#3a5838"/>
  <rect x="254" y="56" width="4" height="4" fill="#3a5838"/>
  <rect x="262" y="56" width="4" height="4" fill="#3a5838"/>
  <rect x="200" y="68" width="10" height="6" fill="#c82020" rx="2"/>
  <rect x="274" y="68" width="10" height="6" fill="#c82020" rx="2"/>

  <!-- Low tatami tables 4 -->
  <rect x="300" y="60" width="60" height="3" fill="#4a2818"/>
  <rect x="300" y="63" width="60" height="2" fill="#3a1808"/>
  <rect x="326" y="65" width="4" height="7" fill="#2a1808"/>
  <!-- Sushi boat -->
  <path d="M 308 60 L 352 60 L 348 56 L 312 56 Z" fill="#8a5028"/>
  <rect x="312" y="54" width="4" height="3" fill="#f0f0e8"/>
  <rect x="312" y="53" width="4" height="1" fill="#e85030"/>
  <rect x="320" y="54" width="4" height="3" fill="#f0f0e8"/>
  <rect x="320" y="53" width="4" height="1" fill="#c8a040"/>
  <rect x="328" y="54" width="4" height="3" fill="#f0f0e8"/>
  <rect x="328" y="53" width="4" height="1" fill="#4a8030"/>
  <rect x="336" y="54" width="4" height="3" fill="#f0f0e8"/>
  <rect x="336" y="53" width="4" height="1" fill="#c83020"/>
  <rect x="344" y="54" width="4" height="3" fill="#f0f0e8"/>
  <rect x="344" y="53" width="4" height="1" fill="#e85030"/>
  <rect x="288" y="68" width="10" height="6" fill="#c82020" rx="2"/>
  <rect x="362" y="68" width="10" height="6" fill="#c82020" rx="2"/>

  <!-- Sushi bar counter (right) -->
  <rect x="390" y="52" width="80" height="4" fill="#6a4028"/>
  <rect x="390" y="56" width="80" height="16" fill="#4a2818"/>
  <rect x="392" y="58" width="76" height="10" fill="#3a1808" rx="1"/>
  <!-- Sushi display case -->
  <rect x="398" y="44" width="60" height="10" fill="#88a0b0" opacity="0.4"/>
  <rect x="398" y="44" width="60" height="2" fill="#a8c0d0" opacity="0.6"/>
  <rect x="402" y="50" width="4" height="3" fill="#f0f0e8"/>
  <rect x="402" y="49" width="4" height="1" fill="#e85030"/>
  <rect x="410" y="50" width="4" height="3" fill="#f0f0e8"/>
  <rect x="410" y="49" width="4" height="1" fill="#c8a040"/>
  <rect x="418" y="50" width="4" height="3" fill="#f0f0e8"/>
  <rect x="418" y="49" width="4" height="1" fill="#c83020"/>
  <rect x="426" y="50" width="4" height="3" fill="#f0f0e8"/>
  <rect x="426" y="49" width="4" height="1" fill="#4a8030"/>
  <rect x="434" y="50" width="4" height="3" fill="#f0f0e8"/>
  <rect x="434" y="49" width="4" height="1" fill="#e85030"/>
  <rect x="442" y="50" width="4" height="3" fill="#f0f0e8"/>
  <rect x="442" y="49" width="4" height="1" fill="#c8a040"/>
  <rect x="450" y="50" width="4" height="3" fill="#f0f0e8"/>
  <rect x="450" y="49" width="4" height="1" fill="#c83020"/>
</svg>
